<mxfile host="Electron" agent="Mozilla/5.0 (X11; Linux x86_64) AppleWebKit/537.36 (KHTML, like Gecko) draw.io/28.0.6 Chrome/138.0.7204.100 Electron/37.2.3 Safari/537.36" version="28.0.6">
  <diagram name="Page-1" id="ItvkkZS1G1d_KUN03Acr">
    <mxGraphModel dx="1106" dy="727" grid="1" gridSize="10" guides="1" tooltips="1" connect="1" arrows="1" fold="1" page="1" pageScale="1" pageWidth="850" pageHeight="1100" math="0" shadow="0">
      <root>
        <mxCell id="0" />
        <mxCell id="1" parent="0" />
        <mxCell id="cP0u4AcFSvPjlsEDeug1-72" value="" style="group" vertex="1" connectable="0" parent="1">
          <mxGeometry x="80" y="100" width="300" height="300" as="geometry" />
        </mxCell>
        <mxCell id="cP0u4AcFSvPjlsEDeug1-1" value="Bamlet" style="whiteSpace=wrap;html=1;aspect=fixed;fontSize=10;" vertex="1" parent="cP0u4AcFSvPjlsEDeug1-72">
          <mxGeometry x="80" y="60" width="40" height="40" as="geometry" />
        </mxCell>
        <mxCell id="cP0u4AcFSvPjlsEDeug1-11" value="RISC-V Processor" style="rounded=0;whiteSpace=wrap;html=1;" vertex="1" parent="cP0u4AcFSvPjlsEDeug1-72">
          <mxGeometry x="50" width="240" height="40" as="geometry" />
        </mxCell>
        <mxCell id="cP0u4AcFSvPjlsEDeug1-12" value="Bamlet" style="whiteSpace=wrap;html=1;aspect=fixed;fontSize=10;" vertex="1" parent="cP0u4AcFSvPjlsEDeug1-72">
          <mxGeometry x="140" y="60" width="40" height="40" as="geometry" />
        </mxCell>
        <mxCell id="cP0u4AcFSvPjlsEDeug1-13" value="Bamlet" style="whiteSpace=wrap;html=1;aspect=fixed;fontSize=10;" vertex="1" parent="cP0u4AcFSvPjlsEDeug1-72">
          <mxGeometry x="200" y="60" width="40" height="40" as="geometry" />
        </mxCell>
        <mxCell id="cP0u4AcFSvPjlsEDeug1-14" value="Bamlet" style="whiteSpace=wrap;html=1;aspect=fixed;fontSize=10;" vertex="1" parent="cP0u4AcFSvPjlsEDeug1-72">
          <mxGeometry x="260" y="60" width="40" height="40" as="geometry" />
        </mxCell>
        <mxCell id="cP0u4AcFSvPjlsEDeug1-15" value="Bamlet" style="whiteSpace=wrap;html=1;aspect=fixed;fontSize=10;" vertex="1" parent="cP0u4AcFSvPjlsEDeug1-72">
          <mxGeometry x="80" y="120" width="40" height="40" as="geometry" />
        </mxCell>
        <mxCell id="cP0u4AcFSvPjlsEDeug1-16" value="Bamlet" style="whiteSpace=wrap;html=1;aspect=fixed;fontSize=10;" vertex="1" parent="cP0u4AcFSvPjlsEDeug1-72">
          <mxGeometry x="140" y="120" width="40" height="40" as="geometry" />
        </mxCell>
        <mxCell id="cP0u4AcFSvPjlsEDeug1-17" value="Bamlet" style="whiteSpace=wrap;html=1;aspect=fixed;fontSize=10;" vertex="1" parent="cP0u4AcFSvPjlsEDeug1-72">
          <mxGeometry x="200" y="120" width="40" height="40" as="geometry" />
        </mxCell>
        <mxCell id="cP0u4AcFSvPjlsEDeug1-18" value="Bamlet" style="whiteSpace=wrap;html=1;aspect=fixed;fontSize=10;" vertex="1" parent="cP0u4AcFSvPjlsEDeug1-72">
          <mxGeometry x="260" y="120" width="40" height="40" as="geometry" />
        </mxCell>
        <mxCell id="cP0u4AcFSvPjlsEDeug1-19" value="Bamlet" style="whiteSpace=wrap;html=1;aspect=fixed;fontSize=10;" vertex="1" parent="cP0u4AcFSvPjlsEDeug1-72">
          <mxGeometry x="80" y="180" width="40" height="40" as="geometry" />
        </mxCell>
        <mxCell id="cP0u4AcFSvPjlsEDeug1-20" value="Bamlet" style="whiteSpace=wrap;html=1;aspect=fixed;fontSize=10;" vertex="1" parent="cP0u4AcFSvPjlsEDeug1-72">
          <mxGeometry x="140" y="180" width="40" height="40" as="geometry" />
        </mxCell>
        <mxCell id="cP0u4AcFSvPjlsEDeug1-21" value="Bamlet" style="whiteSpace=wrap;html=1;aspect=fixed;fontSize=10;" vertex="1" parent="cP0u4AcFSvPjlsEDeug1-72">
          <mxGeometry x="200" y="180" width="40" height="40" as="geometry" />
        </mxCell>
        <mxCell id="cP0u4AcFSvPjlsEDeug1-22" value="Bamlet" style="whiteSpace=wrap;html=1;aspect=fixed;fontSize=10;" vertex="1" parent="cP0u4AcFSvPjlsEDeug1-72">
          <mxGeometry x="260" y="180" width="40" height="40" as="geometry" />
        </mxCell>
        <mxCell id="cP0u4AcFSvPjlsEDeug1-23" value="Bamlet" style="whiteSpace=wrap;html=1;aspect=fixed;fontSize=10;" vertex="1" parent="cP0u4AcFSvPjlsEDeug1-72">
          <mxGeometry x="80" y="240" width="40" height="40" as="geometry" />
        </mxCell>
        <mxCell id="cP0u4AcFSvPjlsEDeug1-24" value="Bamlet" style="whiteSpace=wrap;html=1;aspect=fixed;fontSize=10;" vertex="1" parent="cP0u4AcFSvPjlsEDeug1-72">
          <mxGeometry x="140" y="240" width="40" height="40" as="geometry" />
        </mxCell>
        <mxCell id="cP0u4AcFSvPjlsEDeug1-25" value="Bamlet" style="whiteSpace=wrap;html=1;aspect=fixed;fontSize=10;" vertex="1" parent="cP0u4AcFSvPjlsEDeug1-72">
          <mxGeometry x="200" y="240" width="40" height="40" as="geometry" />
        </mxCell>
        <mxCell id="cP0u4AcFSvPjlsEDeug1-26" value="Bamlet" style="whiteSpace=wrap;html=1;aspect=fixed;fontSize=10;" vertex="1" parent="cP0u4AcFSvPjlsEDeug1-72">
          <mxGeometry x="260" y="240" width="40" height="40" as="geometry" />
        </mxCell>
        <mxCell id="cP0u4AcFSvPjlsEDeug1-27" value="" style="endArrow=classic;startArrow=classic;html=1;rounded=0;entryX=0.5;entryY=1;entryDx=0;entryDy=0;exitX=0.5;exitY=0;exitDx=0;exitDy=0;startSize=4;endSize=4;" edge="1" parent="cP0u4AcFSvPjlsEDeug1-72" source="cP0u4AcFSvPjlsEDeug1-26" target="cP0u4AcFSvPjlsEDeug1-22">
          <mxGeometry width="50" height="50" relative="1" as="geometry">
            <mxPoint x="320" y="300" as="sourcePoint" />
            <mxPoint x="370" y="250" as="targetPoint" />
          </mxGeometry>
        </mxCell>
        <mxCell id="cP0u4AcFSvPjlsEDeug1-28" value="" style="endArrow=classic;startArrow=classic;html=1;rounded=0;entryX=0.5;entryY=1;entryDx=0;entryDy=0;exitX=0.5;exitY=0;exitDx=0;exitDy=0;startSize=4;endSize=4;" edge="1" parent="cP0u4AcFSvPjlsEDeug1-72">
          <mxGeometry width="50" height="50" relative="1" as="geometry">
            <mxPoint x="220" y="240" as="sourcePoint" />
            <mxPoint x="220" y="220" as="targetPoint" />
          </mxGeometry>
        </mxCell>
        <mxCell id="cP0u4AcFSvPjlsEDeug1-30" value="" style="endArrow=classic;startArrow=classic;html=1;rounded=0;entryX=0.5;entryY=1;entryDx=0;entryDy=0;exitX=0.5;exitY=0;exitDx=0;exitDy=0;startSize=4;endSize=4;" edge="1" parent="cP0u4AcFSvPjlsEDeug1-72">
          <mxGeometry width="50" height="50" relative="1" as="geometry">
            <mxPoint x="160" y="240" as="sourcePoint" />
            <mxPoint x="160" y="220" as="targetPoint" />
          </mxGeometry>
        </mxCell>
        <mxCell id="cP0u4AcFSvPjlsEDeug1-31" value="" style="endArrow=classic;startArrow=classic;html=1;rounded=0;entryX=0.5;entryY=1;entryDx=0;entryDy=0;exitX=0.5;exitY=0;exitDx=0;exitDy=0;startSize=4;endSize=4;" edge="1" parent="cP0u4AcFSvPjlsEDeug1-72">
          <mxGeometry width="50" height="50" relative="1" as="geometry">
            <mxPoint x="100" y="240" as="sourcePoint" />
            <mxPoint x="100" y="220" as="targetPoint" />
          </mxGeometry>
        </mxCell>
        <mxCell id="cP0u4AcFSvPjlsEDeug1-34" value="" style="endArrow=classic;startArrow=classic;html=1;rounded=0;entryX=0.5;entryY=1;entryDx=0;entryDy=0;exitX=0.5;exitY=0;exitDx=0;exitDy=0;startSize=4;endSize=4;" edge="1" parent="cP0u4AcFSvPjlsEDeug1-72">
          <mxGeometry width="50" height="50" relative="1" as="geometry">
            <mxPoint x="280" y="180" as="sourcePoint" />
            <mxPoint x="280" y="160" as="targetPoint" />
          </mxGeometry>
        </mxCell>
        <mxCell id="cP0u4AcFSvPjlsEDeug1-35" value="" style="endArrow=classic;startArrow=classic;html=1;rounded=0;entryX=0.5;entryY=1;entryDx=0;entryDy=0;exitX=0.5;exitY=0;exitDx=0;exitDy=0;startSize=4;endSize=4;" edge="1" parent="cP0u4AcFSvPjlsEDeug1-72">
          <mxGeometry width="50" height="50" relative="1" as="geometry">
            <mxPoint x="220" y="180" as="sourcePoint" />
            <mxPoint x="220" y="160" as="targetPoint" />
          </mxGeometry>
        </mxCell>
        <mxCell id="cP0u4AcFSvPjlsEDeug1-36" value="" style="endArrow=classic;startArrow=classic;html=1;rounded=0;entryX=0.5;entryY=1;entryDx=0;entryDy=0;exitX=0.5;exitY=0;exitDx=0;exitDy=0;startSize=4;endSize=4;" edge="1" parent="cP0u4AcFSvPjlsEDeug1-72">
          <mxGeometry width="50" height="50" relative="1" as="geometry">
            <mxPoint x="160" y="180" as="sourcePoint" />
            <mxPoint x="160" y="160" as="targetPoint" />
          </mxGeometry>
        </mxCell>
        <mxCell id="cP0u4AcFSvPjlsEDeug1-37" value="" style="endArrow=classic;startArrow=classic;html=1;rounded=0;entryX=0.5;entryY=1;entryDx=0;entryDy=0;exitX=0.5;exitY=0;exitDx=0;exitDy=0;startSize=4;endSize=4;" edge="1" parent="cP0u4AcFSvPjlsEDeug1-72">
          <mxGeometry width="50" height="50" relative="1" as="geometry">
            <mxPoint x="100" y="180" as="sourcePoint" />
            <mxPoint x="100" y="160" as="targetPoint" />
          </mxGeometry>
        </mxCell>
        <mxCell id="cP0u4AcFSvPjlsEDeug1-38" value="" style="endArrow=classic;startArrow=classic;html=1;rounded=0;entryX=0.5;entryY=1;entryDx=0;entryDy=0;exitX=0.5;exitY=0;exitDx=0;exitDy=0;startSize=4;endSize=4;" edge="1" parent="cP0u4AcFSvPjlsEDeug1-72">
          <mxGeometry width="50" height="50" relative="1" as="geometry">
            <mxPoint x="280" y="120" as="sourcePoint" />
            <mxPoint x="280" y="100" as="targetPoint" />
          </mxGeometry>
        </mxCell>
        <mxCell id="cP0u4AcFSvPjlsEDeug1-39" value="" style="endArrow=classic;startArrow=classic;html=1;rounded=0;entryX=0.5;entryY=1;entryDx=0;entryDy=0;exitX=0.5;exitY=0;exitDx=0;exitDy=0;startSize=4;endSize=4;" edge="1" parent="cP0u4AcFSvPjlsEDeug1-72">
          <mxGeometry width="50" height="50" relative="1" as="geometry">
            <mxPoint x="220" y="120" as="sourcePoint" />
            <mxPoint x="220" y="100" as="targetPoint" />
          </mxGeometry>
        </mxCell>
        <mxCell id="cP0u4AcFSvPjlsEDeug1-40" value="" style="endArrow=classic;startArrow=classic;html=1;rounded=0;entryX=0.5;entryY=1;entryDx=0;entryDy=0;exitX=0.5;exitY=0;exitDx=0;exitDy=0;startSize=4;endSize=4;" edge="1" parent="cP0u4AcFSvPjlsEDeug1-72">
          <mxGeometry width="50" height="50" relative="1" as="geometry">
            <mxPoint x="160" y="120" as="sourcePoint" />
            <mxPoint x="160" y="100" as="targetPoint" />
          </mxGeometry>
        </mxCell>
        <mxCell id="cP0u4AcFSvPjlsEDeug1-41" value="" style="endArrow=classic;startArrow=classic;html=1;rounded=0;entryX=0.5;entryY=1;entryDx=0;entryDy=0;exitX=0.5;exitY=0;exitDx=0;exitDy=0;startSize=4;endSize=4;" edge="1" parent="cP0u4AcFSvPjlsEDeug1-72">
          <mxGeometry width="50" height="50" relative="1" as="geometry">
            <mxPoint x="100" y="120" as="sourcePoint" />
            <mxPoint x="100" y="100" as="targetPoint" />
          </mxGeometry>
        </mxCell>
        <mxCell id="cP0u4AcFSvPjlsEDeug1-42" value="" style="endArrow=classic;startArrow=classic;html=1;rounded=0;entryX=0.5;entryY=1;entryDx=0;entryDy=0;exitX=0.5;exitY=0;exitDx=0;exitDy=0;startSize=4;endSize=4;" edge="1" parent="cP0u4AcFSvPjlsEDeug1-72">
          <mxGeometry width="50" height="50" relative="1" as="geometry">
            <mxPoint x="280" y="60" as="sourcePoint" />
            <mxPoint x="280" y="40" as="targetPoint" />
          </mxGeometry>
        </mxCell>
        <mxCell id="cP0u4AcFSvPjlsEDeug1-43" value="" style="endArrow=classic;startArrow=classic;html=1;rounded=0;entryX=0.5;entryY=1;entryDx=0;entryDy=0;exitX=0.5;exitY=0;exitDx=0;exitDy=0;startSize=4;endSize=4;" edge="1" parent="cP0u4AcFSvPjlsEDeug1-72">
          <mxGeometry width="50" height="50" relative="1" as="geometry">
            <mxPoint x="220" y="60" as="sourcePoint" />
            <mxPoint x="220" y="40" as="targetPoint" />
          </mxGeometry>
        </mxCell>
        <mxCell id="cP0u4AcFSvPjlsEDeug1-44" value="" style="endArrow=classic;startArrow=classic;html=1;rounded=0;entryX=0.5;entryY=1;entryDx=0;entryDy=0;exitX=0.5;exitY=0;exitDx=0;exitDy=0;startSize=4;endSize=4;" edge="1" parent="cP0u4AcFSvPjlsEDeug1-72">
          <mxGeometry width="50" height="50" relative="1" as="geometry">
            <mxPoint x="160" y="60" as="sourcePoint" />
            <mxPoint x="160" y="40" as="targetPoint" />
          </mxGeometry>
        </mxCell>
        <mxCell id="cP0u4AcFSvPjlsEDeug1-45" value="" style="endArrow=classic;startArrow=classic;html=1;rounded=0;entryX=0.5;entryY=1;entryDx=0;entryDy=0;exitX=0.5;exitY=0;exitDx=0;exitDy=0;startSize=4;endSize=4;" edge="1" parent="cP0u4AcFSvPjlsEDeug1-72">
          <mxGeometry width="50" height="50" relative="1" as="geometry">
            <mxPoint x="100" y="60" as="sourcePoint" />
            <mxPoint x="100" y="40" as="targetPoint" />
          </mxGeometry>
        </mxCell>
        <mxCell id="cP0u4AcFSvPjlsEDeug1-46" value="" style="endArrow=classic;startArrow=classic;html=1;rounded=0;strokeWidth=4;" edge="1" parent="cP0u4AcFSvPjlsEDeug1-72">
          <mxGeometry width="50" height="50" relative="1" as="geometry">
            <mxPoint x="60" y="300" as="sourcePoint" />
            <mxPoint x="60" y="40" as="targetPoint" />
          </mxGeometry>
        </mxCell>
        <mxCell id="cP0u4AcFSvPjlsEDeug1-51" value="" style="endArrow=classic;startArrow=classic;html=1;rounded=0;entryX=1;entryY=0.5;entryDx=0;entryDy=0;startSize=4;endSize=4;" edge="1" parent="cP0u4AcFSvPjlsEDeug1-72">
          <mxGeometry width="50" height="50" relative="1" as="geometry">
            <mxPoint x="260" y="80" as="sourcePoint" />
            <mxPoint x="240" y="80" as="targetPoint" />
          </mxGeometry>
        </mxCell>
        <mxCell id="cP0u4AcFSvPjlsEDeug1-52" value="" style="endArrow=classic;startArrow=classic;html=1;rounded=0;entryX=1;entryY=0.5;entryDx=0;entryDy=0;startSize=4;endSize=4;" edge="1" parent="cP0u4AcFSvPjlsEDeug1-72">
          <mxGeometry width="50" height="50" relative="1" as="geometry">
            <mxPoint x="260" y="139.82999999999998" as="sourcePoint" />
            <mxPoint x="240" y="139.82999999999998" as="targetPoint" />
          </mxGeometry>
        </mxCell>
        <mxCell id="cP0u4AcFSvPjlsEDeug1-53" value="" style="endArrow=classic;startArrow=classic;html=1;rounded=0;entryX=1;entryY=0.5;entryDx=0;entryDy=0;startSize=4;endSize=4;" edge="1" parent="cP0u4AcFSvPjlsEDeug1-72">
          <mxGeometry width="50" height="50" relative="1" as="geometry">
            <mxPoint x="260" y="200" as="sourcePoint" />
            <mxPoint x="240" y="200" as="targetPoint" />
          </mxGeometry>
        </mxCell>
        <mxCell id="cP0u4AcFSvPjlsEDeug1-54" value="" style="endArrow=classic;startArrow=classic;html=1;rounded=0;entryX=1;entryY=0.5;entryDx=0;entryDy=0;startSize=4;endSize=4;" edge="1" parent="cP0u4AcFSvPjlsEDeug1-72">
          <mxGeometry width="50" height="50" relative="1" as="geometry">
            <mxPoint x="260" y="259.83" as="sourcePoint" />
            <mxPoint x="240" y="259.83" as="targetPoint" />
          </mxGeometry>
        </mxCell>
        <mxCell id="cP0u4AcFSvPjlsEDeug1-55" value="" style="endArrow=classic;startArrow=classic;html=1;rounded=0;entryX=1;entryY=0.5;entryDx=0;entryDy=0;startSize=4;endSize=4;" edge="1" parent="cP0u4AcFSvPjlsEDeug1-72">
          <mxGeometry width="50" height="50" relative="1" as="geometry">
            <mxPoint x="200" y="80" as="sourcePoint" />
            <mxPoint x="180" y="80" as="targetPoint" />
          </mxGeometry>
        </mxCell>
        <mxCell id="cP0u4AcFSvPjlsEDeug1-56" value="" style="endArrow=classic;startArrow=classic;html=1;rounded=0;entryX=1;entryY=0.5;entryDx=0;entryDy=0;startSize=4;endSize=4;" edge="1" parent="cP0u4AcFSvPjlsEDeug1-72">
          <mxGeometry width="50" height="50" relative="1" as="geometry">
            <mxPoint x="200" y="139.82999999999998" as="sourcePoint" />
            <mxPoint x="180" y="139.82999999999998" as="targetPoint" />
          </mxGeometry>
        </mxCell>
        <mxCell id="cP0u4AcFSvPjlsEDeug1-57" value="" style="endArrow=classic;startArrow=classic;html=1;rounded=0;entryX=1;entryY=0.5;entryDx=0;entryDy=0;startSize=4;endSize=4;" edge="1" parent="cP0u4AcFSvPjlsEDeug1-72">
          <mxGeometry width="50" height="50" relative="1" as="geometry">
            <mxPoint x="200" y="200" as="sourcePoint" />
            <mxPoint x="180" y="200" as="targetPoint" />
          </mxGeometry>
        </mxCell>
        <mxCell id="cP0u4AcFSvPjlsEDeug1-58" value="" style="endArrow=classic;startArrow=classic;html=1;rounded=0;entryX=1;entryY=0.5;entryDx=0;entryDy=0;startSize=4;endSize=4;" edge="1" parent="cP0u4AcFSvPjlsEDeug1-72">
          <mxGeometry width="50" height="50" relative="1" as="geometry">
            <mxPoint x="200" y="259.83" as="sourcePoint" />
            <mxPoint x="180" y="259.83" as="targetPoint" />
          </mxGeometry>
        </mxCell>
        <mxCell id="cP0u4AcFSvPjlsEDeug1-59" value="" style="endArrow=classic;startArrow=classic;html=1;rounded=0;entryX=1;entryY=0.5;entryDx=0;entryDy=0;startSize=4;endSize=4;" edge="1" parent="cP0u4AcFSvPjlsEDeug1-72">
          <mxGeometry width="50" height="50" relative="1" as="geometry">
            <mxPoint x="140" y="80" as="sourcePoint" />
            <mxPoint x="120" y="80" as="targetPoint" />
          </mxGeometry>
        </mxCell>
        <mxCell id="cP0u4AcFSvPjlsEDeug1-60" value="" style="endArrow=classic;startArrow=classic;html=1;rounded=0;entryX=1;entryY=0.5;entryDx=0;entryDy=0;startSize=4;endSize=4;" edge="1" parent="cP0u4AcFSvPjlsEDeug1-72">
          <mxGeometry width="50" height="50" relative="1" as="geometry">
            <mxPoint x="140" y="139.82999999999998" as="sourcePoint" />
            <mxPoint x="120" y="139.82999999999998" as="targetPoint" />
          </mxGeometry>
        </mxCell>
        <mxCell id="cP0u4AcFSvPjlsEDeug1-61" value="" style="endArrow=classic;startArrow=classic;html=1;rounded=0;entryX=1;entryY=0.5;entryDx=0;entryDy=0;startSize=4;endSize=4;" edge="1" parent="cP0u4AcFSvPjlsEDeug1-72">
          <mxGeometry width="50" height="50" relative="1" as="geometry">
            <mxPoint x="140" y="200" as="sourcePoint" />
            <mxPoint x="120" y="200" as="targetPoint" />
          </mxGeometry>
        </mxCell>
        <mxCell id="cP0u4AcFSvPjlsEDeug1-62" value="" style="endArrow=classic;startArrow=classic;html=1;rounded=0;entryX=1;entryY=0.5;entryDx=0;entryDy=0;startSize=4;endSize=4;" edge="1" parent="cP0u4AcFSvPjlsEDeug1-72">
          <mxGeometry width="50" height="50" relative="1" as="geometry">
            <mxPoint x="140" y="259.83" as="sourcePoint" />
            <mxPoint x="120" y="259.83" as="targetPoint" />
          </mxGeometry>
        </mxCell>
        <mxCell id="cP0u4AcFSvPjlsEDeug1-63" value="" style="endArrow=classic;startArrow=classic;html=1;rounded=0;startSize=4;endSize=4;" edge="1" parent="cP0u4AcFSvPjlsEDeug1-72">
          <mxGeometry width="50" height="50" relative="1" as="geometry">
            <mxPoint x="80" y="80" as="sourcePoint" />
            <mxPoint x="10" y="80" as="targetPoint" />
          </mxGeometry>
        </mxCell>
        <mxCell id="cP0u4AcFSvPjlsEDeug1-64" value="" style="endArrow=classic;startArrow=classic;html=1;rounded=0;startSize=4;endSize=4;" edge="1" parent="cP0u4AcFSvPjlsEDeug1-72">
          <mxGeometry width="50" height="50" relative="1" as="geometry">
            <mxPoint x="80" y="139.82999999999998" as="sourcePoint" />
            <mxPoint x="10" y="140" as="targetPoint" />
          </mxGeometry>
        </mxCell>
        <mxCell id="cP0u4AcFSvPjlsEDeug1-65" value="" style="endArrow=classic;startArrow=classic;html=1;rounded=0;startSize=4;endSize=4;" edge="1" parent="cP0u4AcFSvPjlsEDeug1-72">
          <mxGeometry width="50" height="50" relative="1" as="geometry">
            <mxPoint x="80" y="200" as="sourcePoint" />
            <mxPoint x="10" y="200" as="targetPoint" />
          </mxGeometry>
        </mxCell>
        <mxCell id="cP0u4AcFSvPjlsEDeug1-66" value="" style="endArrow=classic;startArrow=classic;html=1;rounded=0;startSize=4;endSize=4;" edge="1" parent="cP0u4AcFSvPjlsEDeug1-72">
          <mxGeometry width="50" height="50" relative="1" as="geometry">
            <mxPoint x="80" y="259.83" as="sourcePoint" />
            <mxPoint x="10" y="260" as="targetPoint" />
          </mxGeometry>
        </mxCell>
        <mxCell id="cP0u4AcFSvPjlsEDeug1-67" value="" style="endArrow=classic;startArrow=classic;html=1;rounded=0;entryX=0.5;entryY=1;entryDx=0;entryDy=0;exitX=0.5;exitY=0;exitDx=0;exitDy=0;startSize=4;endSize=4;" edge="1" parent="cP0u4AcFSvPjlsEDeug1-72">
          <mxGeometry width="50" height="50" relative="1" as="geometry">
            <mxPoint x="280" y="300" as="sourcePoint" />
            <mxPoint x="280" y="280" as="targetPoint" />
          </mxGeometry>
        </mxCell>
        <mxCell id="cP0u4AcFSvPjlsEDeug1-68" value="" style="endArrow=classic;startArrow=classic;html=1;rounded=0;entryX=0.5;entryY=1;entryDx=0;entryDy=0;exitX=0.5;exitY=0;exitDx=0;exitDy=0;startSize=4;endSize=4;" edge="1" parent="cP0u4AcFSvPjlsEDeug1-72">
          <mxGeometry width="50" height="50" relative="1" as="geometry">
            <mxPoint x="220" y="300" as="sourcePoint" />
            <mxPoint x="220" y="280" as="targetPoint" />
          </mxGeometry>
        </mxCell>
        <mxCell id="cP0u4AcFSvPjlsEDeug1-69" value="" style="endArrow=classic;startArrow=classic;html=1;rounded=0;entryX=0.5;entryY=1;entryDx=0;entryDy=0;exitX=0.5;exitY=0;exitDx=0;exitDy=0;startSize=4;endSize=4;" edge="1" parent="cP0u4AcFSvPjlsEDeug1-72">
          <mxGeometry width="50" height="50" relative="1" as="geometry">
            <mxPoint x="160" y="300" as="sourcePoint" />
            <mxPoint x="160" y="280" as="targetPoint" />
          </mxGeometry>
        </mxCell>
        <mxCell id="cP0u4AcFSvPjlsEDeug1-70" value="" style="endArrow=classic;startArrow=classic;html=1;rounded=0;entryX=0.5;entryY=1;entryDx=0;entryDy=0;exitX=0.5;exitY=0;exitDx=0;exitDy=0;startSize=4;endSize=4;" edge="1" parent="cP0u4AcFSvPjlsEDeug1-72">
          <mxGeometry width="50" height="50" relative="1" as="geometry">
            <mxPoint x="100" y="300" as="sourcePoint" />
            <mxPoint x="100" y="280" as="targetPoint" />
          </mxGeometry>
        </mxCell>
        <mxCell id="cP0u4AcFSvPjlsEDeug1-71" value="" style="endArrow=classic;startArrow=classic;html=1;rounded=0;strokeWidth=4;exitX=0;exitY=0.5;exitDx=0;exitDy=0;" edge="1" parent="cP0u4AcFSvPjlsEDeug1-72" source="cP0u4AcFSvPjlsEDeug1-11">
          <mxGeometry width="50" height="50" relative="1" as="geometry">
            <mxPoint x="330" y="20" as="sourcePoint" />
            <mxPoint y="20" as="targetPoint" />
            <Array as="points" />
          </mxGeometry>
        </mxCell>
        <mxCell id="cP0u4AcFSvPjlsEDeug1-73" value="" style="group" vertex="1" connectable="0" parent="1">
          <mxGeometry x="370" y="100" width="300" height="300" as="geometry" />
        </mxCell>
        <mxCell id="cP0u4AcFSvPjlsEDeug1-74" value="Bamlet" style="whiteSpace=wrap;html=1;aspect=fixed;fontSize=10;" vertex="1" parent="cP0u4AcFSvPjlsEDeug1-73">
          <mxGeometry x="80" y="60" width="40" height="40" as="geometry" />
        </mxCell>
        <mxCell id="cP0u4AcFSvPjlsEDeug1-75" value="RISC-V Processor" style="rounded=0;whiteSpace=wrap;html=1;" vertex="1" parent="cP0u4AcFSvPjlsEDeug1-73">
          <mxGeometry x="50" width="240" height="40" as="geometry" />
        </mxCell>
        <mxCell id="cP0u4AcFSvPjlsEDeug1-76" value="Bamlet" style="whiteSpace=wrap;html=1;aspect=fixed;fontSize=10;" vertex="1" parent="cP0u4AcFSvPjlsEDeug1-73">
          <mxGeometry x="140" y="60" width="40" height="40" as="geometry" />
        </mxCell>
        <mxCell id="cP0u4AcFSvPjlsEDeug1-77" value="Bamlet" style="whiteSpace=wrap;html=1;aspect=fixed;fontSize=10;" vertex="1" parent="cP0u4AcFSvPjlsEDeug1-73">
          <mxGeometry x="200" y="60" width="40" height="40" as="geometry" />
        </mxCell>
        <mxCell id="cP0u4AcFSvPjlsEDeug1-78" value="Bamlet" style="whiteSpace=wrap;html=1;aspect=fixed;fontSize=10;" vertex="1" parent="cP0u4AcFSvPjlsEDeug1-73">
          <mxGeometry x="260" y="60" width="40" height="40" as="geometry" />
        </mxCell>
        <mxCell id="cP0u4AcFSvPjlsEDeug1-79" value="Bamlet" style="whiteSpace=wrap;html=1;aspect=fixed;fontSize=10;" vertex="1" parent="cP0u4AcFSvPjlsEDeug1-73">
          <mxGeometry x="80" y="120" width="40" height="40" as="geometry" />
        </mxCell>
        <mxCell id="cP0u4AcFSvPjlsEDeug1-80" value="Bamlet" style="whiteSpace=wrap;html=1;aspect=fixed;fontSize=10;" vertex="1" parent="cP0u4AcFSvPjlsEDeug1-73">
          <mxGeometry x="140" y="120" width="40" height="40" as="geometry" />
        </mxCell>
        <mxCell id="cP0u4AcFSvPjlsEDeug1-81" value="Bamlet" style="whiteSpace=wrap;html=1;aspect=fixed;fontSize=10;" vertex="1" parent="cP0u4AcFSvPjlsEDeug1-73">
          <mxGeometry x="200" y="120" width="40" height="40" as="geometry" />
        </mxCell>
        <mxCell id="cP0u4AcFSvPjlsEDeug1-82" value="Bamlet" style="whiteSpace=wrap;html=1;aspect=fixed;fontSize=10;" vertex="1" parent="cP0u4AcFSvPjlsEDeug1-73">
          <mxGeometry x="260" y="120" width="40" height="40" as="geometry" />
        </mxCell>
        <mxCell id="cP0u4AcFSvPjlsEDeug1-83" value="Bamlet" style="whiteSpace=wrap;html=1;aspect=fixed;fontSize=10;" vertex="1" parent="cP0u4AcFSvPjlsEDeug1-73">
          <mxGeometry x="80" y="180" width="40" height="40" as="geometry" />
        </mxCell>
        <mxCell id="cP0u4AcFSvPjlsEDeug1-84" value="Bamlet" style="whiteSpace=wrap;html=1;aspect=fixed;fontSize=10;" vertex="1" parent="cP0u4AcFSvPjlsEDeug1-73">
          <mxGeometry x="140" y="180" width="40" height="40" as="geometry" />
        </mxCell>
        <mxCell id="cP0u4AcFSvPjlsEDeug1-85" value="Bamlet" style="whiteSpace=wrap;html=1;aspect=fixed;fontSize=10;" vertex="1" parent="cP0u4AcFSvPjlsEDeug1-73">
          <mxGeometry x="200" y="180" width="40" height="40" as="geometry" />
        </mxCell>
        <mxCell id="cP0u4AcFSvPjlsEDeug1-86" value="Bamlet" style="whiteSpace=wrap;html=1;aspect=fixed;fontSize=10;" vertex="1" parent="cP0u4AcFSvPjlsEDeug1-73">
          <mxGeometry x="260" y="180" width="40" height="40" as="geometry" />
        </mxCell>
        <mxCell id="cP0u4AcFSvPjlsEDeug1-87" value="Bamlet" style="whiteSpace=wrap;html=1;aspect=fixed;fontSize=10;" vertex="1" parent="cP0u4AcFSvPjlsEDeug1-73">
          <mxGeometry x="80" y="240" width="40" height="40" as="geometry" />
        </mxCell>
        <mxCell id="cP0u4AcFSvPjlsEDeug1-88" value="Bamlet" style="whiteSpace=wrap;html=1;aspect=fixed;fontSize=10;" vertex="1" parent="cP0u4AcFSvPjlsEDeug1-73">
          <mxGeometry x="140" y="240" width="40" height="40" as="geometry" />
        </mxCell>
        <mxCell id="cP0u4AcFSvPjlsEDeug1-89" value="Bamlet" style="whiteSpace=wrap;html=1;aspect=fixed;fontSize=10;" vertex="1" parent="cP0u4AcFSvPjlsEDeug1-73">
          <mxGeometry x="200" y="240" width="40" height="40" as="geometry" />
        </mxCell>
        <mxCell id="cP0u4AcFSvPjlsEDeug1-90" value="Bamlet" style="whiteSpace=wrap;html=1;aspect=fixed;fontSize=10;" vertex="1" parent="cP0u4AcFSvPjlsEDeug1-73">
          <mxGeometry x="260" y="240" width="40" height="40" as="geometry" />
        </mxCell>
        <mxCell id="cP0u4AcFSvPjlsEDeug1-91" value="" style="endArrow=classic;startArrow=classic;html=1;rounded=0;entryX=0.5;entryY=1;entryDx=0;entryDy=0;exitX=0.5;exitY=0;exitDx=0;exitDy=0;startSize=4;endSize=4;" edge="1" parent="cP0u4AcFSvPjlsEDeug1-73" source="cP0u4AcFSvPjlsEDeug1-90" target="cP0u4AcFSvPjlsEDeug1-86">
          <mxGeometry width="50" height="50" relative="1" as="geometry">
            <mxPoint x="320" y="300" as="sourcePoint" />
            <mxPoint x="370" y="250" as="targetPoint" />
          </mxGeometry>
        </mxCell>
        <mxCell id="cP0u4AcFSvPjlsEDeug1-92" value="" style="endArrow=classic;startArrow=classic;html=1;rounded=0;entryX=0.5;entryY=1;entryDx=0;entryDy=0;exitX=0.5;exitY=0;exitDx=0;exitDy=0;startSize=4;endSize=4;" edge="1" parent="cP0u4AcFSvPjlsEDeug1-73">
          <mxGeometry width="50" height="50" relative="1" as="geometry">
            <mxPoint x="220" y="240" as="sourcePoint" />
            <mxPoint x="220" y="220" as="targetPoint" />
          </mxGeometry>
        </mxCell>
        <mxCell id="cP0u4AcFSvPjlsEDeug1-93" value="" style="endArrow=classic;startArrow=classic;html=1;rounded=0;entryX=0.5;entryY=1;entryDx=0;entryDy=0;exitX=0.5;exitY=0;exitDx=0;exitDy=0;startSize=4;endSize=4;" edge="1" parent="cP0u4AcFSvPjlsEDeug1-73">
          <mxGeometry width="50" height="50" relative="1" as="geometry">
            <mxPoint x="160" y="240" as="sourcePoint" />
            <mxPoint x="160" y="220" as="targetPoint" />
          </mxGeometry>
        </mxCell>
        <mxCell id="cP0u4AcFSvPjlsEDeug1-94" value="" style="endArrow=classic;startArrow=classic;html=1;rounded=0;entryX=0.5;entryY=1;entryDx=0;entryDy=0;exitX=0.5;exitY=0;exitDx=0;exitDy=0;startSize=4;endSize=4;" edge="1" parent="cP0u4AcFSvPjlsEDeug1-73">
          <mxGeometry width="50" height="50" relative="1" as="geometry">
            <mxPoint x="100" y="240" as="sourcePoint" />
            <mxPoint x="100" y="220" as="targetPoint" />
          </mxGeometry>
        </mxCell>
        <mxCell id="cP0u4AcFSvPjlsEDeug1-95" value="" style="endArrow=classic;startArrow=classic;html=1;rounded=0;entryX=0.5;entryY=1;entryDx=0;entryDy=0;exitX=0.5;exitY=0;exitDx=0;exitDy=0;startSize=4;endSize=4;" edge="1" parent="cP0u4AcFSvPjlsEDeug1-73">
          <mxGeometry width="50" height="50" relative="1" as="geometry">
            <mxPoint x="280" y="180" as="sourcePoint" />
            <mxPoint x="280" y="160" as="targetPoint" />
          </mxGeometry>
        </mxCell>
        <mxCell id="cP0u4AcFSvPjlsEDeug1-96" value="" style="endArrow=classic;startArrow=classic;html=1;rounded=0;entryX=0.5;entryY=1;entryDx=0;entryDy=0;exitX=0.5;exitY=0;exitDx=0;exitDy=0;startSize=4;endSize=4;" edge="1" parent="cP0u4AcFSvPjlsEDeug1-73">
          <mxGeometry width="50" height="50" relative="1" as="geometry">
            <mxPoint x="220" y="180" as="sourcePoint" />
            <mxPoint x="220" y="160" as="targetPoint" />
          </mxGeometry>
        </mxCell>
        <mxCell id="cP0u4AcFSvPjlsEDeug1-97" value="" style="endArrow=classic;startArrow=classic;html=1;rounded=0;entryX=0.5;entryY=1;entryDx=0;entryDy=0;exitX=0.5;exitY=0;exitDx=0;exitDy=0;startSize=4;endSize=4;" edge="1" parent="cP0u4AcFSvPjlsEDeug1-73">
          <mxGeometry width="50" height="50" relative="1" as="geometry">
            <mxPoint x="160" y="180" as="sourcePoint" />
            <mxPoint x="160" y="160" as="targetPoint" />
          </mxGeometry>
        </mxCell>
        <mxCell id="cP0u4AcFSvPjlsEDeug1-98" value="" style="endArrow=classic;startArrow=classic;html=1;rounded=0;entryX=0.5;entryY=1;entryDx=0;entryDy=0;exitX=0.5;exitY=0;exitDx=0;exitDy=0;startSize=4;endSize=4;" edge="1" parent="cP0u4AcFSvPjlsEDeug1-73">
          <mxGeometry width="50" height="50" relative="1" as="geometry">
            <mxPoint x="100" y="180" as="sourcePoint" />
            <mxPoint x="100" y="160" as="targetPoint" />
          </mxGeometry>
        </mxCell>
        <mxCell id="cP0u4AcFSvPjlsEDeug1-99" value="" style="endArrow=classic;startArrow=classic;html=1;rounded=0;entryX=0.5;entryY=1;entryDx=0;entryDy=0;exitX=0.5;exitY=0;exitDx=0;exitDy=0;startSize=4;endSize=4;" edge="1" parent="cP0u4AcFSvPjlsEDeug1-73">
          <mxGeometry width="50" height="50" relative="1" as="geometry">
            <mxPoint x="280" y="120" as="sourcePoint" />
            <mxPoint x="280" y="100" as="targetPoint" />
          </mxGeometry>
        </mxCell>
        <mxCell id="cP0u4AcFSvPjlsEDeug1-100" value="" style="endArrow=classic;startArrow=classic;html=1;rounded=0;entryX=0.5;entryY=1;entryDx=0;entryDy=0;exitX=0.5;exitY=0;exitDx=0;exitDy=0;startSize=4;endSize=4;" edge="1" parent="cP0u4AcFSvPjlsEDeug1-73">
          <mxGeometry width="50" height="50" relative="1" as="geometry">
            <mxPoint x="220" y="120" as="sourcePoint" />
            <mxPoint x="220" y="100" as="targetPoint" />
          </mxGeometry>
        </mxCell>
        <mxCell id="cP0u4AcFSvPjlsEDeug1-101" value="" style="endArrow=classic;startArrow=classic;html=1;rounded=0;entryX=0.5;entryY=1;entryDx=0;entryDy=0;exitX=0.5;exitY=0;exitDx=0;exitDy=0;startSize=4;endSize=4;" edge="1" parent="cP0u4AcFSvPjlsEDeug1-73">
          <mxGeometry width="50" height="50" relative="1" as="geometry">
            <mxPoint x="160" y="120" as="sourcePoint" />
            <mxPoint x="160" y="100" as="targetPoint" />
          </mxGeometry>
        </mxCell>
        <mxCell id="cP0u4AcFSvPjlsEDeug1-102" value="" style="endArrow=classic;startArrow=classic;html=1;rounded=0;entryX=0.5;entryY=1;entryDx=0;entryDy=0;exitX=0.5;exitY=0;exitDx=0;exitDy=0;startSize=4;endSize=4;" edge="1" parent="cP0u4AcFSvPjlsEDeug1-73">
          <mxGeometry width="50" height="50" relative="1" as="geometry">
            <mxPoint x="100" y="120" as="sourcePoint" />
            <mxPoint x="100" y="100" as="targetPoint" />
          </mxGeometry>
        </mxCell>
        <mxCell id="cP0u4AcFSvPjlsEDeug1-103" value="" style="endArrow=classic;startArrow=classic;html=1;rounded=0;entryX=0.5;entryY=1;entryDx=0;entryDy=0;exitX=0.5;exitY=0;exitDx=0;exitDy=0;startSize=4;endSize=4;" edge="1" parent="cP0u4AcFSvPjlsEDeug1-73">
          <mxGeometry width="50" height="50" relative="1" as="geometry">
            <mxPoint x="280" y="60" as="sourcePoint" />
            <mxPoint x="280" y="40" as="targetPoint" />
          </mxGeometry>
        </mxCell>
        <mxCell id="cP0u4AcFSvPjlsEDeug1-104" value="" style="endArrow=classic;startArrow=classic;html=1;rounded=0;entryX=0.5;entryY=1;entryDx=0;entryDy=0;exitX=0.5;exitY=0;exitDx=0;exitDy=0;startSize=4;endSize=4;" edge="1" parent="cP0u4AcFSvPjlsEDeug1-73">
          <mxGeometry width="50" height="50" relative="1" as="geometry">
            <mxPoint x="220" y="60" as="sourcePoint" />
            <mxPoint x="220" y="40" as="targetPoint" />
          </mxGeometry>
        </mxCell>
        <mxCell id="cP0u4AcFSvPjlsEDeug1-105" value="" style="endArrow=classic;startArrow=classic;html=1;rounded=0;entryX=0.5;entryY=1;entryDx=0;entryDy=0;exitX=0.5;exitY=0;exitDx=0;exitDy=0;startSize=4;endSize=4;" edge="1" parent="cP0u4AcFSvPjlsEDeug1-73">
          <mxGeometry width="50" height="50" relative="1" as="geometry">
            <mxPoint x="160" y="60" as="sourcePoint" />
            <mxPoint x="160" y="40" as="targetPoint" />
          </mxGeometry>
        </mxCell>
        <mxCell id="cP0u4AcFSvPjlsEDeug1-106" value="" style="endArrow=classic;startArrow=classic;html=1;rounded=0;entryX=0.5;entryY=1;entryDx=0;entryDy=0;exitX=0.5;exitY=0;exitDx=0;exitDy=0;startSize=4;endSize=4;" edge="1" parent="cP0u4AcFSvPjlsEDeug1-73">
          <mxGeometry width="50" height="50" relative="1" as="geometry">
            <mxPoint x="100" y="60" as="sourcePoint" />
            <mxPoint x="100" y="40" as="targetPoint" />
          </mxGeometry>
        </mxCell>
        <mxCell id="cP0u4AcFSvPjlsEDeug1-107" value="" style="endArrow=classic;startArrow=classic;html=1;rounded=0;strokeWidth=4;" edge="1" parent="cP0u4AcFSvPjlsEDeug1-73">
          <mxGeometry width="50" height="50" relative="1" as="geometry">
            <mxPoint x="60" y="300" as="sourcePoint" />
            <mxPoint x="60" y="40" as="targetPoint" />
          </mxGeometry>
        </mxCell>
        <mxCell id="cP0u4AcFSvPjlsEDeug1-108" value="" style="endArrow=classic;startArrow=classic;html=1;rounded=0;entryX=1;entryY=0.5;entryDx=0;entryDy=0;startSize=4;endSize=4;" edge="1" parent="cP0u4AcFSvPjlsEDeug1-73">
          <mxGeometry width="50" height="50" relative="1" as="geometry">
            <mxPoint x="260" y="80" as="sourcePoint" />
            <mxPoint x="240" y="80" as="targetPoint" />
          </mxGeometry>
        </mxCell>
        <mxCell id="cP0u4AcFSvPjlsEDeug1-109" value="" style="endArrow=classic;startArrow=classic;html=1;rounded=0;entryX=1;entryY=0.5;entryDx=0;entryDy=0;startSize=4;endSize=4;" edge="1" parent="cP0u4AcFSvPjlsEDeug1-73">
          <mxGeometry width="50" height="50" relative="1" as="geometry">
            <mxPoint x="260" y="139.82999999999998" as="sourcePoint" />
            <mxPoint x="240" y="139.82999999999998" as="targetPoint" />
          </mxGeometry>
        </mxCell>
        <mxCell id="cP0u4AcFSvPjlsEDeug1-110" value="" style="endArrow=classic;startArrow=classic;html=1;rounded=0;entryX=1;entryY=0.5;entryDx=0;entryDy=0;startSize=4;endSize=4;" edge="1" parent="cP0u4AcFSvPjlsEDeug1-73">
          <mxGeometry width="50" height="50" relative="1" as="geometry">
            <mxPoint x="260" y="200" as="sourcePoint" />
            <mxPoint x="240" y="200" as="targetPoint" />
          </mxGeometry>
        </mxCell>
        <mxCell id="cP0u4AcFSvPjlsEDeug1-111" value="" style="endArrow=classic;startArrow=classic;html=1;rounded=0;entryX=1;entryY=0.5;entryDx=0;entryDy=0;startSize=4;endSize=4;" edge="1" parent="cP0u4AcFSvPjlsEDeug1-73">
          <mxGeometry width="50" height="50" relative="1" as="geometry">
            <mxPoint x="260" y="259.83" as="sourcePoint" />
            <mxPoint x="240" y="259.83" as="targetPoint" />
          </mxGeometry>
        </mxCell>
        <mxCell id="cP0u4AcFSvPjlsEDeug1-112" value="" style="endArrow=classic;startArrow=classic;html=1;rounded=0;entryX=1;entryY=0.5;entryDx=0;entryDy=0;startSize=4;endSize=4;" edge="1" parent="cP0u4AcFSvPjlsEDeug1-73">
          <mxGeometry width="50" height="50" relative="1" as="geometry">
            <mxPoint x="200" y="80" as="sourcePoint" />
            <mxPoint x="180" y="80" as="targetPoint" />
          </mxGeometry>
        </mxCell>
        <mxCell id="cP0u4AcFSvPjlsEDeug1-113" value="" style="endArrow=classic;startArrow=classic;html=1;rounded=0;entryX=1;entryY=0.5;entryDx=0;entryDy=0;startSize=4;endSize=4;" edge="1" parent="cP0u4AcFSvPjlsEDeug1-73">
          <mxGeometry width="50" height="50" relative="1" as="geometry">
            <mxPoint x="200" y="139.82999999999998" as="sourcePoint" />
            <mxPoint x="180" y="139.82999999999998" as="targetPoint" />
          </mxGeometry>
        </mxCell>
        <mxCell id="cP0u4AcFSvPjlsEDeug1-114" value="" style="endArrow=classic;startArrow=classic;html=1;rounded=0;entryX=1;entryY=0.5;entryDx=0;entryDy=0;startSize=4;endSize=4;" edge="1" parent="cP0u4AcFSvPjlsEDeug1-73">
          <mxGeometry width="50" height="50" relative="1" as="geometry">
            <mxPoint x="200" y="200" as="sourcePoint" />
            <mxPoint x="180" y="200" as="targetPoint" />
          </mxGeometry>
        </mxCell>
        <mxCell id="cP0u4AcFSvPjlsEDeug1-115" value="" style="endArrow=classic;startArrow=classic;html=1;rounded=0;entryX=1;entryY=0.5;entryDx=0;entryDy=0;startSize=4;endSize=4;" edge="1" parent="cP0u4AcFSvPjlsEDeug1-73">
          <mxGeometry width="50" height="50" relative="1" as="geometry">
            <mxPoint x="200" y="259.83" as="sourcePoint" />
            <mxPoint x="180" y="259.83" as="targetPoint" />
          </mxGeometry>
        </mxCell>
        <mxCell id="cP0u4AcFSvPjlsEDeug1-116" value="" style="endArrow=classic;startArrow=classic;html=1;rounded=0;entryX=1;entryY=0.5;entryDx=0;entryDy=0;startSize=4;endSize=4;" edge="1" parent="cP0u4AcFSvPjlsEDeug1-73">
          <mxGeometry width="50" height="50" relative="1" as="geometry">
            <mxPoint x="140" y="80" as="sourcePoint" />
            <mxPoint x="120" y="80" as="targetPoint" />
          </mxGeometry>
        </mxCell>
        <mxCell id="cP0u4AcFSvPjlsEDeug1-117" value="" style="endArrow=classic;startArrow=classic;html=1;rounded=0;entryX=1;entryY=0.5;entryDx=0;entryDy=0;startSize=4;endSize=4;" edge="1" parent="cP0u4AcFSvPjlsEDeug1-73">
          <mxGeometry width="50" height="50" relative="1" as="geometry">
            <mxPoint x="140" y="139.82999999999998" as="sourcePoint" />
            <mxPoint x="120" y="139.82999999999998" as="targetPoint" />
          </mxGeometry>
        </mxCell>
        <mxCell id="cP0u4AcFSvPjlsEDeug1-118" value="" style="endArrow=classic;startArrow=classic;html=1;rounded=0;entryX=1;entryY=0.5;entryDx=0;entryDy=0;startSize=4;endSize=4;" edge="1" parent="cP0u4AcFSvPjlsEDeug1-73">
          <mxGeometry width="50" height="50" relative="1" as="geometry">
            <mxPoint x="140" y="200" as="sourcePoint" />
            <mxPoint x="120" y="200" as="targetPoint" />
          </mxGeometry>
        </mxCell>
        <mxCell id="cP0u4AcFSvPjlsEDeug1-119" value="" style="endArrow=classic;startArrow=classic;html=1;rounded=0;entryX=1;entryY=0.5;entryDx=0;entryDy=0;startSize=4;endSize=4;" edge="1" parent="cP0u4AcFSvPjlsEDeug1-73">
          <mxGeometry width="50" height="50" relative="1" as="geometry">
            <mxPoint x="140" y="259.83" as="sourcePoint" />
            <mxPoint x="120" y="259.83" as="targetPoint" />
          </mxGeometry>
        </mxCell>
        <mxCell id="cP0u4AcFSvPjlsEDeug1-120" value="" style="endArrow=classic;startArrow=classic;html=1;rounded=0;startSize=4;endSize=4;" edge="1" parent="cP0u4AcFSvPjlsEDeug1-73">
          <mxGeometry width="50" height="50" relative="1" as="geometry">
            <mxPoint x="80" y="80" as="sourcePoint" />
            <mxPoint x="10" y="80" as="targetPoint" />
          </mxGeometry>
        </mxCell>
        <mxCell id="cP0u4AcFSvPjlsEDeug1-121" value="" style="endArrow=classic;startArrow=classic;html=1;rounded=0;startSize=4;endSize=4;" edge="1" parent="cP0u4AcFSvPjlsEDeug1-73">
          <mxGeometry width="50" height="50" relative="1" as="geometry">
            <mxPoint x="80" y="139.82999999999998" as="sourcePoint" />
            <mxPoint x="10" y="140" as="targetPoint" />
          </mxGeometry>
        </mxCell>
        <mxCell id="cP0u4AcFSvPjlsEDeug1-122" value="" style="endArrow=classic;startArrow=classic;html=1;rounded=0;startSize=4;endSize=4;" edge="1" parent="cP0u4AcFSvPjlsEDeug1-73">
          <mxGeometry width="50" height="50" relative="1" as="geometry">
            <mxPoint x="80" y="200" as="sourcePoint" />
            <mxPoint x="10" y="200" as="targetPoint" />
          </mxGeometry>
        </mxCell>
        <mxCell id="cP0u4AcFSvPjlsEDeug1-123" value="" style="endArrow=classic;startArrow=classic;html=1;rounded=0;startSize=4;endSize=4;" edge="1" parent="cP0u4AcFSvPjlsEDeug1-73">
          <mxGeometry width="50" height="50" relative="1" as="geometry">
            <mxPoint x="80" y="259.83" as="sourcePoint" />
            <mxPoint x="10" y="260" as="targetPoint" />
          </mxGeometry>
        </mxCell>
        <mxCell id="cP0u4AcFSvPjlsEDeug1-124" value="" style="endArrow=classic;startArrow=classic;html=1;rounded=0;entryX=0.5;entryY=1;entryDx=0;entryDy=0;exitX=0.5;exitY=0;exitDx=0;exitDy=0;startSize=4;endSize=4;" edge="1" parent="cP0u4AcFSvPjlsEDeug1-73">
          <mxGeometry width="50" height="50" relative="1" as="geometry">
            <mxPoint x="280" y="300" as="sourcePoint" />
            <mxPoint x="280" y="280" as="targetPoint" />
          </mxGeometry>
        </mxCell>
        <mxCell id="cP0u4AcFSvPjlsEDeug1-125" value="" style="endArrow=classic;startArrow=classic;html=1;rounded=0;entryX=0.5;entryY=1;entryDx=0;entryDy=0;exitX=0.5;exitY=0;exitDx=0;exitDy=0;startSize=4;endSize=4;" edge="1" parent="cP0u4AcFSvPjlsEDeug1-73">
          <mxGeometry width="50" height="50" relative="1" as="geometry">
            <mxPoint x="220" y="300" as="sourcePoint" />
            <mxPoint x="220" y="280" as="targetPoint" />
          </mxGeometry>
        </mxCell>
        <mxCell id="cP0u4AcFSvPjlsEDeug1-126" value="" style="endArrow=classic;startArrow=classic;html=1;rounded=0;entryX=0.5;entryY=1;entryDx=0;entryDy=0;exitX=0.5;exitY=0;exitDx=0;exitDy=0;startSize=4;endSize=4;" edge="1" parent="cP0u4AcFSvPjlsEDeug1-73">
          <mxGeometry width="50" height="50" relative="1" as="geometry">
            <mxPoint x="160" y="300" as="sourcePoint" />
            <mxPoint x="160" y="280" as="targetPoint" />
          </mxGeometry>
        </mxCell>
        <mxCell id="cP0u4AcFSvPjlsEDeug1-127" value="" style="endArrow=classic;startArrow=classic;html=1;rounded=0;entryX=0.5;entryY=1;entryDx=0;entryDy=0;exitX=0.5;exitY=0;exitDx=0;exitDy=0;startSize=4;endSize=4;" edge="1" parent="cP0u4AcFSvPjlsEDeug1-73">
          <mxGeometry width="50" height="50" relative="1" as="geometry">
            <mxPoint x="100" y="300" as="sourcePoint" />
            <mxPoint x="100" y="280" as="targetPoint" />
          </mxGeometry>
        </mxCell>
        <mxCell id="cP0u4AcFSvPjlsEDeug1-128" value="" style="endArrow=classic;startArrow=classic;html=1;rounded=0;strokeWidth=4;exitX=0;exitY=0.5;exitDx=0;exitDy=0;" edge="1" parent="cP0u4AcFSvPjlsEDeug1-73" source="cP0u4AcFSvPjlsEDeug1-75">
          <mxGeometry width="50" height="50" relative="1" as="geometry">
            <mxPoint x="330" y="20" as="sourcePoint" />
            <mxPoint y="20" as="targetPoint" />
            <Array as="points" />
          </mxGeometry>
        </mxCell>
        <mxCell id="cP0u4AcFSvPjlsEDeug1-129" value="" style="group" vertex="1" connectable="0" parent="1">
          <mxGeometry x="80" y="400" width="300" height="300" as="geometry" />
        </mxCell>
        <mxCell id="cP0u4AcFSvPjlsEDeug1-130" value="Bamlet" style="whiteSpace=wrap;html=1;aspect=fixed;fontSize=10;" vertex="1" parent="cP0u4AcFSvPjlsEDeug1-129">
          <mxGeometry x="80" y="60" width="40" height="40" as="geometry" />
        </mxCell>
        <mxCell id="cP0u4AcFSvPjlsEDeug1-131" value="RISC-V Processor" style="rounded=0;whiteSpace=wrap;html=1;" vertex="1" parent="cP0u4AcFSvPjlsEDeug1-129">
          <mxGeometry x="50" width="240" height="40" as="geometry" />
        </mxCell>
        <mxCell id="cP0u4AcFSvPjlsEDeug1-132" value="Bamlet" style="whiteSpace=wrap;html=1;aspect=fixed;fontSize=10;" vertex="1" parent="cP0u4AcFSvPjlsEDeug1-129">
          <mxGeometry x="140" y="60" width="40" height="40" as="geometry" />
        </mxCell>
        <mxCell id="cP0u4AcFSvPjlsEDeug1-133" value="Bamlet" style="whiteSpace=wrap;html=1;aspect=fixed;fontSize=10;" vertex="1" parent="cP0u4AcFSvPjlsEDeug1-129">
          <mxGeometry x="200" y="60" width="40" height="40" as="geometry" />
        </mxCell>
        <mxCell id="cP0u4AcFSvPjlsEDeug1-134" value="Bamlet" style="whiteSpace=wrap;html=1;aspect=fixed;fontSize=10;" vertex="1" parent="cP0u4AcFSvPjlsEDeug1-129">
          <mxGeometry x="260" y="60" width="40" height="40" as="geometry" />
        </mxCell>
        <mxCell id="cP0u4AcFSvPjlsEDeug1-135" value="Bamlet" style="whiteSpace=wrap;html=1;aspect=fixed;fontSize=10;" vertex="1" parent="cP0u4AcFSvPjlsEDeug1-129">
          <mxGeometry x="80" y="120" width="40" height="40" as="geometry" />
        </mxCell>
        <mxCell id="cP0u4AcFSvPjlsEDeug1-136" value="Bamlet" style="whiteSpace=wrap;html=1;aspect=fixed;fontSize=10;" vertex="1" parent="cP0u4AcFSvPjlsEDeug1-129">
          <mxGeometry x="140" y="120" width="40" height="40" as="geometry" />
        </mxCell>
        <mxCell id="cP0u4AcFSvPjlsEDeug1-137" value="Bamlet" style="whiteSpace=wrap;html=1;aspect=fixed;fontSize=10;" vertex="1" parent="cP0u4AcFSvPjlsEDeug1-129">
          <mxGeometry x="200" y="120" width="40" height="40" as="geometry" />
        </mxCell>
        <mxCell id="cP0u4AcFSvPjlsEDeug1-138" value="Bamlet" style="whiteSpace=wrap;html=1;aspect=fixed;fontSize=10;" vertex="1" parent="cP0u4AcFSvPjlsEDeug1-129">
          <mxGeometry x="260" y="120" width="40" height="40" as="geometry" />
        </mxCell>
        <mxCell id="cP0u4AcFSvPjlsEDeug1-139" value="Bamlet" style="whiteSpace=wrap;html=1;aspect=fixed;fontSize=10;" vertex="1" parent="cP0u4AcFSvPjlsEDeug1-129">
          <mxGeometry x="80" y="180" width="40" height="40" as="geometry" />
        </mxCell>
        <mxCell id="cP0u4AcFSvPjlsEDeug1-140" value="Bamlet" style="whiteSpace=wrap;html=1;aspect=fixed;fontSize=10;" vertex="1" parent="cP0u4AcFSvPjlsEDeug1-129">
          <mxGeometry x="140" y="180" width="40" height="40" as="geometry" />
        </mxCell>
        <mxCell id="cP0u4AcFSvPjlsEDeug1-141" value="Bamlet" style="whiteSpace=wrap;html=1;aspect=fixed;fontSize=10;" vertex="1" parent="cP0u4AcFSvPjlsEDeug1-129">
          <mxGeometry x="200" y="180" width="40" height="40" as="geometry" />
        </mxCell>
        <mxCell id="cP0u4AcFSvPjlsEDeug1-142" value="Bamlet" style="whiteSpace=wrap;html=1;aspect=fixed;fontSize=10;" vertex="1" parent="cP0u4AcFSvPjlsEDeug1-129">
          <mxGeometry x="260" y="180" width="40" height="40" as="geometry" />
        </mxCell>
        <mxCell id="cP0u4AcFSvPjlsEDeug1-143" value="Bamlet" style="whiteSpace=wrap;html=1;aspect=fixed;fontSize=10;" vertex="1" parent="cP0u4AcFSvPjlsEDeug1-129">
          <mxGeometry x="80" y="240" width="40" height="40" as="geometry" />
        </mxCell>
        <mxCell id="cP0u4AcFSvPjlsEDeug1-144" value="Bamlet" style="whiteSpace=wrap;html=1;aspect=fixed;fontSize=10;" vertex="1" parent="cP0u4AcFSvPjlsEDeug1-129">
          <mxGeometry x="140" y="240" width="40" height="40" as="geometry" />
        </mxCell>
        <mxCell id="cP0u4AcFSvPjlsEDeug1-145" value="Bamlet" style="whiteSpace=wrap;html=1;aspect=fixed;fontSize=10;" vertex="1" parent="cP0u4AcFSvPjlsEDeug1-129">
          <mxGeometry x="200" y="240" width="40" height="40" as="geometry" />
        </mxCell>
        <mxCell id="cP0u4AcFSvPjlsEDeug1-146" value="Bamlet" style="whiteSpace=wrap;html=1;aspect=fixed;fontSize=10;" vertex="1" parent="cP0u4AcFSvPjlsEDeug1-129">
          <mxGeometry x="260" y="240" width="40" height="40" as="geometry" />
        </mxCell>
        <mxCell id="cP0u4AcFSvPjlsEDeug1-147" value="" style="endArrow=classic;startArrow=classic;html=1;rounded=0;entryX=0.5;entryY=1;entryDx=0;entryDy=0;exitX=0.5;exitY=0;exitDx=0;exitDy=0;startSize=4;endSize=4;" edge="1" parent="cP0u4AcFSvPjlsEDeug1-129" source="cP0u4AcFSvPjlsEDeug1-146" target="cP0u4AcFSvPjlsEDeug1-142">
          <mxGeometry width="50" height="50" relative="1" as="geometry">
            <mxPoint x="320" y="300" as="sourcePoint" />
            <mxPoint x="370" y="250" as="targetPoint" />
          </mxGeometry>
        </mxCell>
        <mxCell id="cP0u4AcFSvPjlsEDeug1-148" value="" style="endArrow=classic;startArrow=classic;html=1;rounded=0;entryX=0.5;entryY=1;entryDx=0;entryDy=0;exitX=0.5;exitY=0;exitDx=0;exitDy=0;startSize=4;endSize=4;" edge="1" parent="cP0u4AcFSvPjlsEDeug1-129">
          <mxGeometry width="50" height="50" relative="1" as="geometry">
            <mxPoint x="220" y="240" as="sourcePoint" />
            <mxPoint x="220" y="220" as="targetPoint" />
          </mxGeometry>
        </mxCell>
        <mxCell id="cP0u4AcFSvPjlsEDeug1-149" value="" style="endArrow=classic;startArrow=classic;html=1;rounded=0;entryX=0.5;entryY=1;entryDx=0;entryDy=0;exitX=0.5;exitY=0;exitDx=0;exitDy=0;startSize=4;endSize=4;" edge="1" parent="cP0u4AcFSvPjlsEDeug1-129">
          <mxGeometry width="50" height="50" relative="1" as="geometry">
            <mxPoint x="160" y="240" as="sourcePoint" />
            <mxPoint x="160" y="220" as="targetPoint" />
          </mxGeometry>
        </mxCell>
        <mxCell id="cP0u4AcFSvPjlsEDeug1-150" value="" style="endArrow=classic;startArrow=classic;html=1;rounded=0;entryX=0.5;entryY=1;entryDx=0;entryDy=0;exitX=0.5;exitY=0;exitDx=0;exitDy=0;startSize=4;endSize=4;" edge="1" parent="cP0u4AcFSvPjlsEDeug1-129">
          <mxGeometry width="50" height="50" relative="1" as="geometry">
            <mxPoint x="100" y="240" as="sourcePoint" />
            <mxPoint x="100" y="220" as="targetPoint" />
          </mxGeometry>
        </mxCell>
        <mxCell id="cP0u4AcFSvPjlsEDeug1-151" value="" style="endArrow=classic;startArrow=classic;html=1;rounded=0;entryX=0.5;entryY=1;entryDx=0;entryDy=0;exitX=0.5;exitY=0;exitDx=0;exitDy=0;startSize=4;endSize=4;" edge="1" parent="cP0u4AcFSvPjlsEDeug1-129">
          <mxGeometry width="50" height="50" relative="1" as="geometry">
            <mxPoint x="280" y="180" as="sourcePoint" />
            <mxPoint x="280" y="160" as="targetPoint" />
          </mxGeometry>
        </mxCell>
        <mxCell id="cP0u4AcFSvPjlsEDeug1-152" value="" style="endArrow=classic;startArrow=classic;html=1;rounded=0;entryX=0.5;entryY=1;entryDx=0;entryDy=0;exitX=0.5;exitY=0;exitDx=0;exitDy=0;startSize=4;endSize=4;" edge="1" parent="cP0u4AcFSvPjlsEDeug1-129">
          <mxGeometry width="50" height="50" relative="1" as="geometry">
            <mxPoint x="220" y="180" as="sourcePoint" />
            <mxPoint x="220" y="160" as="targetPoint" />
          </mxGeometry>
        </mxCell>
        <mxCell id="cP0u4AcFSvPjlsEDeug1-153" value="" style="endArrow=classic;startArrow=classic;html=1;rounded=0;entryX=0.5;entryY=1;entryDx=0;entryDy=0;exitX=0.5;exitY=0;exitDx=0;exitDy=0;startSize=4;endSize=4;" edge="1" parent="cP0u4AcFSvPjlsEDeug1-129">
          <mxGeometry width="50" height="50" relative="1" as="geometry">
            <mxPoint x="160" y="180" as="sourcePoint" />
            <mxPoint x="160" y="160" as="targetPoint" />
          </mxGeometry>
        </mxCell>
        <mxCell id="cP0u4AcFSvPjlsEDeug1-154" value="" style="endArrow=classic;startArrow=classic;html=1;rounded=0;entryX=0.5;entryY=1;entryDx=0;entryDy=0;exitX=0.5;exitY=0;exitDx=0;exitDy=0;startSize=4;endSize=4;" edge="1" parent="cP0u4AcFSvPjlsEDeug1-129">
          <mxGeometry width="50" height="50" relative="1" as="geometry">
            <mxPoint x="100" y="180" as="sourcePoint" />
            <mxPoint x="100" y="160" as="targetPoint" />
          </mxGeometry>
        </mxCell>
        <mxCell id="cP0u4AcFSvPjlsEDeug1-155" value="" style="endArrow=classic;startArrow=classic;html=1;rounded=0;entryX=0.5;entryY=1;entryDx=0;entryDy=0;exitX=0.5;exitY=0;exitDx=0;exitDy=0;startSize=4;endSize=4;" edge="1" parent="cP0u4AcFSvPjlsEDeug1-129">
          <mxGeometry width="50" height="50" relative="1" as="geometry">
            <mxPoint x="280" y="120" as="sourcePoint" />
            <mxPoint x="280" y="100" as="targetPoint" />
          </mxGeometry>
        </mxCell>
        <mxCell id="cP0u4AcFSvPjlsEDeug1-156" value="" style="endArrow=classic;startArrow=classic;html=1;rounded=0;entryX=0.5;entryY=1;entryDx=0;entryDy=0;exitX=0.5;exitY=0;exitDx=0;exitDy=0;startSize=4;endSize=4;" edge="1" parent="cP0u4AcFSvPjlsEDeug1-129">
          <mxGeometry width="50" height="50" relative="1" as="geometry">
            <mxPoint x="220" y="120" as="sourcePoint" />
            <mxPoint x="220" y="100" as="targetPoint" />
          </mxGeometry>
        </mxCell>
        <mxCell id="cP0u4AcFSvPjlsEDeug1-157" value="" style="endArrow=classic;startArrow=classic;html=1;rounded=0;entryX=0.5;entryY=1;entryDx=0;entryDy=0;exitX=0.5;exitY=0;exitDx=0;exitDy=0;startSize=4;endSize=4;" edge="1" parent="cP0u4AcFSvPjlsEDeug1-129">
          <mxGeometry width="50" height="50" relative="1" as="geometry">
            <mxPoint x="160" y="120" as="sourcePoint" />
            <mxPoint x="160" y="100" as="targetPoint" />
          </mxGeometry>
        </mxCell>
        <mxCell id="cP0u4AcFSvPjlsEDeug1-158" value="" style="endArrow=classic;startArrow=classic;html=1;rounded=0;entryX=0.5;entryY=1;entryDx=0;entryDy=0;exitX=0.5;exitY=0;exitDx=0;exitDy=0;startSize=4;endSize=4;" edge="1" parent="cP0u4AcFSvPjlsEDeug1-129">
          <mxGeometry width="50" height="50" relative="1" as="geometry">
            <mxPoint x="100" y="120" as="sourcePoint" />
            <mxPoint x="100" y="100" as="targetPoint" />
          </mxGeometry>
        </mxCell>
        <mxCell id="cP0u4AcFSvPjlsEDeug1-159" value="" style="endArrow=classic;startArrow=classic;html=1;rounded=0;entryX=0.5;entryY=1;entryDx=0;entryDy=0;exitX=0.5;exitY=0;exitDx=0;exitDy=0;startSize=4;endSize=4;" edge="1" parent="cP0u4AcFSvPjlsEDeug1-129">
          <mxGeometry width="50" height="50" relative="1" as="geometry">
            <mxPoint x="280" y="60" as="sourcePoint" />
            <mxPoint x="280" y="40" as="targetPoint" />
          </mxGeometry>
        </mxCell>
        <mxCell id="cP0u4AcFSvPjlsEDeug1-160" value="" style="endArrow=classic;startArrow=classic;html=1;rounded=0;entryX=0.5;entryY=1;entryDx=0;entryDy=0;exitX=0.5;exitY=0;exitDx=0;exitDy=0;startSize=4;endSize=4;" edge="1" parent="cP0u4AcFSvPjlsEDeug1-129">
          <mxGeometry width="50" height="50" relative="1" as="geometry">
            <mxPoint x="220" y="60" as="sourcePoint" />
            <mxPoint x="220" y="40" as="targetPoint" />
          </mxGeometry>
        </mxCell>
        <mxCell id="cP0u4AcFSvPjlsEDeug1-161" value="" style="endArrow=classic;startArrow=classic;html=1;rounded=0;entryX=0.5;entryY=1;entryDx=0;entryDy=0;exitX=0.5;exitY=0;exitDx=0;exitDy=0;startSize=4;endSize=4;" edge="1" parent="cP0u4AcFSvPjlsEDeug1-129">
          <mxGeometry width="50" height="50" relative="1" as="geometry">
            <mxPoint x="160" y="60" as="sourcePoint" />
            <mxPoint x="160" y="40" as="targetPoint" />
          </mxGeometry>
        </mxCell>
        <mxCell id="cP0u4AcFSvPjlsEDeug1-162" value="" style="endArrow=classic;startArrow=classic;html=1;rounded=0;entryX=0.5;entryY=1;entryDx=0;entryDy=0;exitX=0.5;exitY=0;exitDx=0;exitDy=0;startSize=4;endSize=4;" edge="1" parent="cP0u4AcFSvPjlsEDeug1-129">
          <mxGeometry width="50" height="50" relative="1" as="geometry">
            <mxPoint x="100" y="60" as="sourcePoint" />
            <mxPoint x="100" y="40" as="targetPoint" />
          </mxGeometry>
        </mxCell>
        <mxCell id="cP0u4AcFSvPjlsEDeug1-163" value="" style="endArrow=classic;startArrow=classic;html=1;rounded=0;strokeWidth=4;" edge="1" parent="cP0u4AcFSvPjlsEDeug1-129">
          <mxGeometry width="50" height="50" relative="1" as="geometry">
            <mxPoint x="60" y="300" as="sourcePoint" />
            <mxPoint x="60" y="40" as="targetPoint" />
          </mxGeometry>
        </mxCell>
        <mxCell id="cP0u4AcFSvPjlsEDeug1-164" value="" style="endArrow=classic;startArrow=classic;html=1;rounded=0;entryX=1;entryY=0.5;entryDx=0;entryDy=0;startSize=4;endSize=4;" edge="1" parent="cP0u4AcFSvPjlsEDeug1-129">
          <mxGeometry width="50" height="50" relative="1" as="geometry">
            <mxPoint x="260" y="80" as="sourcePoint" />
            <mxPoint x="240" y="80" as="targetPoint" />
          </mxGeometry>
        </mxCell>
        <mxCell id="cP0u4AcFSvPjlsEDeug1-165" value="" style="endArrow=classic;startArrow=classic;html=1;rounded=0;entryX=1;entryY=0.5;entryDx=0;entryDy=0;startSize=4;endSize=4;" edge="1" parent="cP0u4AcFSvPjlsEDeug1-129">
          <mxGeometry width="50" height="50" relative="1" as="geometry">
            <mxPoint x="260" y="139.82999999999998" as="sourcePoint" />
            <mxPoint x="240" y="139.82999999999998" as="targetPoint" />
          </mxGeometry>
        </mxCell>
        <mxCell id="cP0u4AcFSvPjlsEDeug1-166" value="" style="endArrow=classic;startArrow=classic;html=1;rounded=0;entryX=1;entryY=0.5;entryDx=0;entryDy=0;startSize=4;endSize=4;" edge="1" parent="cP0u4AcFSvPjlsEDeug1-129">
          <mxGeometry width="50" height="50" relative="1" as="geometry">
            <mxPoint x="260" y="200" as="sourcePoint" />
            <mxPoint x="240" y="200" as="targetPoint" />
          </mxGeometry>
        </mxCell>
        <mxCell id="cP0u4AcFSvPjlsEDeug1-167" value="" style="endArrow=classic;startArrow=classic;html=1;rounded=0;entryX=1;entryY=0.5;entryDx=0;entryDy=0;startSize=4;endSize=4;" edge="1" parent="cP0u4AcFSvPjlsEDeug1-129">
          <mxGeometry width="50" height="50" relative="1" as="geometry">
            <mxPoint x="260" y="259.83" as="sourcePoint" />
            <mxPoint x="240" y="259.83" as="targetPoint" />
          </mxGeometry>
        </mxCell>
        <mxCell id="cP0u4AcFSvPjlsEDeug1-168" value="" style="endArrow=classic;startArrow=classic;html=1;rounded=0;entryX=1;entryY=0.5;entryDx=0;entryDy=0;startSize=4;endSize=4;" edge="1" parent="cP0u4AcFSvPjlsEDeug1-129">
          <mxGeometry width="50" height="50" relative="1" as="geometry">
            <mxPoint x="200" y="80" as="sourcePoint" />
            <mxPoint x="180" y="80" as="targetPoint" />
          </mxGeometry>
        </mxCell>
        <mxCell id="cP0u4AcFSvPjlsEDeug1-169" value="" style="endArrow=classic;startArrow=classic;html=1;rounded=0;entryX=1;entryY=0.5;entryDx=0;entryDy=0;startSize=4;endSize=4;" edge="1" parent="cP0u4AcFSvPjlsEDeug1-129">
          <mxGeometry width="50" height="50" relative="1" as="geometry">
            <mxPoint x="200" y="139.82999999999998" as="sourcePoint" />
            <mxPoint x="180" y="139.82999999999998" as="targetPoint" />
          </mxGeometry>
        </mxCell>
        <mxCell id="cP0u4AcFSvPjlsEDeug1-170" value="" style="endArrow=classic;startArrow=classic;html=1;rounded=0;entryX=1;entryY=0.5;entryDx=0;entryDy=0;startSize=4;endSize=4;" edge="1" parent="cP0u4AcFSvPjlsEDeug1-129">
          <mxGeometry width="50" height="50" relative="1" as="geometry">
            <mxPoint x="200" y="200" as="sourcePoint" />
            <mxPoint x="180" y="200" as="targetPoint" />
          </mxGeometry>
        </mxCell>
        <mxCell id="cP0u4AcFSvPjlsEDeug1-171" value="" style="endArrow=classic;startArrow=classic;html=1;rounded=0;entryX=1;entryY=0.5;entryDx=0;entryDy=0;startSize=4;endSize=4;" edge="1" parent="cP0u4AcFSvPjlsEDeug1-129">
          <mxGeometry width="50" height="50" relative="1" as="geometry">
            <mxPoint x="200" y="259.83" as="sourcePoint" />
            <mxPoint x="180" y="259.83" as="targetPoint" />
          </mxGeometry>
        </mxCell>
        <mxCell id="cP0u4AcFSvPjlsEDeug1-172" value="" style="endArrow=classic;startArrow=classic;html=1;rounded=0;entryX=1;entryY=0.5;entryDx=0;entryDy=0;startSize=4;endSize=4;" edge="1" parent="cP0u4AcFSvPjlsEDeug1-129">
          <mxGeometry width="50" height="50" relative="1" as="geometry">
            <mxPoint x="140" y="80" as="sourcePoint" />
            <mxPoint x="120" y="80" as="targetPoint" />
          </mxGeometry>
        </mxCell>
        <mxCell id="cP0u4AcFSvPjlsEDeug1-173" value="" style="endArrow=classic;startArrow=classic;html=1;rounded=0;entryX=1;entryY=0.5;entryDx=0;entryDy=0;startSize=4;endSize=4;" edge="1" parent="cP0u4AcFSvPjlsEDeug1-129">
          <mxGeometry width="50" height="50" relative="1" as="geometry">
            <mxPoint x="140" y="139.82999999999998" as="sourcePoint" />
            <mxPoint x="120" y="139.82999999999998" as="targetPoint" />
          </mxGeometry>
        </mxCell>
        <mxCell id="cP0u4AcFSvPjlsEDeug1-174" value="" style="endArrow=classic;startArrow=classic;html=1;rounded=0;entryX=1;entryY=0.5;entryDx=0;entryDy=0;startSize=4;endSize=4;" edge="1" parent="cP0u4AcFSvPjlsEDeug1-129">
          <mxGeometry width="50" height="50" relative="1" as="geometry">
            <mxPoint x="140" y="200" as="sourcePoint" />
            <mxPoint x="120" y="200" as="targetPoint" />
          </mxGeometry>
        </mxCell>
        <mxCell id="cP0u4AcFSvPjlsEDeug1-175" value="" style="endArrow=classic;startArrow=classic;html=1;rounded=0;entryX=1;entryY=0.5;entryDx=0;entryDy=0;startSize=4;endSize=4;" edge="1" parent="cP0u4AcFSvPjlsEDeug1-129">
          <mxGeometry width="50" height="50" relative="1" as="geometry">
            <mxPoint x="140" y="259.83" as="sourcePoint" />
            <mxPoint x="120" y="259.83" as="targetPoint" />
          </mxGeometry>
        </mxCell>
        <mxCell id="cP0u4AcFSvPjlsEDeug1-176" value="" style="endArrow=classic;startArrow=classic;html=1;rounded=0;startSize=4;endSize=4;" edge="1" parent="cP0u4AcFSvPjlsEDeug1-129">
          <mxGeometry width="50" height="50" relative="1" as="geometry">
            <mxPoint x="80" y="80" as="sourcePoint" />
            <mxPoint x="10" y="80" as="targetPoint" />
          </mxGeometry>
        </mxCell>
        <mxCell id="cP0u4AcFSvPjlsEDeug1-177" value="" style="endArrow=classic;startArrow=classic;html=1;rounded=0;startSize=4;endSize=4;" edge="1" parent="cP0u4AcFSvPjlsEDeug1-129">
          <mxGeometry width="50" height="50" relative="1" as="geometry">
            <mxPoint x="80" y="139.82999999999998" as="sourcePoint" />
            <mxPoint x="10" y="140" as="targetPoint" />
          </mxGeometry>
        </mxCell>
        <mxCell id="cP0u4AcFSvPjlsEDeug1-178" value="" style="endArrow=classic;startArrow=classic;html=1;rounded=0;startSize=4;endSize=4;" edge="1" parent="cP0u4AcFSvPjlsEDeug1-129">
          <mxGeometry width="50" height="50" relative="1" as="geometry">
            <mxPoint x="80" y="200" as="sourcePoint" />
            <mxPoint x="10" y="200" as="targetPoint" />
          </mxGeometry>
        </mxCell>
        <mxCell id="cP0u4AcFSvPjlsEDeug1-179" value="" style="endArrow=classic;startArrow=classic;html=1;rounded=0;startSize=4;endSize=4;" edge="1" parent="cP0u4AcFSvPjlsEDeug1-129">
          <mxGeometry width="50" height="50" relative="1" as="geometry">
            <mxPoint x="80" y="259.83" as="sourcePoint" />
            <mxPoint x="10" y="260" as="targetPoint" />
          </mxGeometry>
        </mxCell>
        <mxCell id="cP0u4AcFSvPjlsEDeug1-180" value="" style="endArrow=classic;startArrow=classic;html=1;rounded=0;entryX=0.5;entryY=1;entryDx=0;entryDy=0;exitX=0.5;exitY=0;exitDx=0;exitDy=0;startSize=4;endSize=4;" edge="1" parent="cP0u4AcFSvPjlsEDeug1-129">
          <mxGeometry width="50" height="50" relative="1" as="geometry">
            <mxPoint x="280" y="300" as="sourcePoint" />
            <mxPoint x="280" y="280" as="targetPoint" />
          </mxGeometry>
        </mxCell>
        <mxCell id="cP0u4AcFSvPjlsEDeug1-181" value="" style="endArrow=classic;startArrow=classic;html=1;rounded=0;entryX=0.5;entryY=1;entryDx=0;entryDy=0;exitX=0.5;exitY=0;exitDx=0;exitDy=0;startSize=4;endSize=4;" edge="1" parent="cP0u4AcFSvPjlsEDeug1-129">
          <mxGeometry width="50" height="50" relative="1" as="geometry">
            <mxPoint x="220" y="300" as="sourcePoint" />
            <mxPoint x="220" y="280" as="targetPoint" />
          </mxGeometry>
        </mxCell>
        <mxCell id="cP0u4AcFSvPjlsEDeug1-182" value="" style="endArrow=classic;startArrow=classic;html=1;rounded=0;entryX=0.5;entryY=1;entryDx=0;entryDy=0;exitX=0.5;exitY=0;exitDx=0;exitDy=0;startSize=4;endSize=4;" edge="1" parent="cP0u4AcFSvPjlsEDeug1-129">
          <mxGeometry width="50" height="50" relative="1" as="geometry">
            <mxPoint x="160" y="300" as="sourcePoint" />
            <mxPoint x="160" y="280" as="targetPoint" />
          </mxGeometry>
        </mxCell>
        <mxCell id="cP0u4AcFSvPjlsEDeug1-183" value="" style="endArrow=classic;startArrow=classic;html=1;rounded=0;entryX=0.5;entryY=1;entryDx=0;entryDy=0;exitX=0.5;exitY=0;exitDx=0;exitDy=0;startSize=4;endSize=4;" edge="1" parent="cP0u4AcFSvPjlsEDeug1-129">
          <mxGeometry width="50" height="50" relative="1" as="geometry">
            <mxPoint x="100" y="300" as="sourcePoint" />
            <mxPoint x="100" y="280" as="targetPoint" />
          </mxGeometry>
        </mxCell>
        <mxCell id="cP0u4AcFSvPjlsEDeug1-184" value="" style="endArrow=classic;startArrow=classic;html=1;rounded=0;strokeWidth=4;exitX=0;exitY=0.5;exitDx=0;exitDy=0;" edge="1" parent="cP0u4AcFSvPjlsEDeug1-129" source="cP0u4AcFSvPjlsEDeug1-131">
          <mxGeometry width="50" height="50" relative="1" as="geometry">
            <mxPoint x="330" y="20" as="sourcePoint" />
            <mxPoint y="20" as="targetPoint" />
            <Array as="points" />
          </mxGeometry>
        </mxCell>
        <mxCell id="cP0u4AcFSvPjlsEDeug1-185" value="" style="group" vertex="1" connectable="0" parent="1">
          <mxGeometry x="370" y="400" width="300" height="300" as="geometry" />
        </mxCell>
        <mxCell id="cP0u4AcFSvPjlsEDeug1-186" value="Bamlet" style="whiteSpace=wrap;html=1;aspect=fixed;fontSize=10;" vertex="1" parent="cP0u4AcFSvPjlsEDeug1-185">
          <mxGeometry x="80" y="60" width="40" height="40" as="geometry" />
        </mxCell>
        <mxCell id="cP0u4AcFSvPjlsEDeug1-187" value="RISC-V Processor" style="rounded=0;whiteSpace=wrap;html=1;" vertex="1" parent="cP0u4AcFSvPjlsEDeug1-185">
          <mxGeometry x="50" width="240" height="40" as="geometry" />
        </mxCell>
        <mxCell id="cP0u4AcFSvPjlsEDeug1-188" value="Bamlet" style="whiteSpace=wrap;html=1;aspect=fixed;fontSize=10;" vertex="1" parent="cP0u4AcFSvPjlsEDeug1-185">
          <mxGeometry x="140" y="60" width="40" height="40" as="geometry" />
        </mxCell>
        <mxCell id="cP0u4AcFSvPjlsEDeug1-189" value="Bamlet" style="whiteSpace=wrap;html=1;aspect=fixed;fontSize=10;" vertex="1" parent="cP0u4AcFSvPjlsEDeug1-185">
          <mxGeometry x="200" y="60" width="40" height="40" as="geometry" />
        </mxCell>
        <mxCell id="cP0u4AcFSvPjlsEDeug1-190" value="Bamlet" style="whiteSpace=wrap;html=1;aspect=fixed;fontSize=10;" vertex="1" parent="cP0u4AcFSvPjlsEDeug1-185">
          <mxGeometry x="260" y="60" width="40" height="40" as="geometry" />
        </mxCell>
        <mxCell id="cP0u4AcFSvPjlsEDeug1-191" value="Bamlet" style="whiteSpace=wrap;html=1;aspect=fixed;fontSize=10;" vertex="1" parent="cP0u4AcFSvPjlsEDeug1-185">
          <mxGeometry x="80" y="120" width="40" height="40" as="geometry" />
        </mxCell>
        <mxCell id="cP0u4AcFSvPjlsEDeug1-192" value="Bamlet" style="whiteSpace=wrap;html=1;aspect=fixed;fontSize=10;" vertex="1" parent="cP0u4AcFSvPjlsEDeug1-185">
          <mxGeometry x="140" y="120" width="40" height="40" as="geometry" />
        </mxCell>
        <mxCell id="cP0u4AcFSvPjlsEDeug1-193" value="Bamlet" style="whiteSpace=wrap;html=1;aspect=fixed;fontSize=10;" vertex="1" parent="cP0u4AcFSvPjlsEDeug1-185">
          <mxGeometry x="200" y="120" width="40" height="40" as="geometry" />
        </mxCell>
        <mxCell id="cP0u4AcFSvPjlsEDeug1-194" value="Bamlet" style="whiteSpace=wrap;html=1;aspect=fixed;fontSize=10;" vertex="1" parent="cP0u4AcFSvPjlsEDeug1-185">
          <mxGeometry x="260" y="120" width="40" height="40" as="geometry" />
        </mxCell>
        <mxCell id="cP0u4AcFSvPjlsEDeug1-195" value="Bamlet" style="whiteSpace=wrap;html=1;aspect=fixed;fontSize=10;" vertex="1" parent="cP0u4AcFSvPjlsEDeug1-185">
          <mxGeometry x="80" y="180" width="40" height="40" as="geometry" />
        </mxCell>
        <mxCell id="cP0u4AcFSvPjlsEDeug1-196" value="Bamlet" style="whiteSpace=wrap;html=1;aspect=fixed;fontSize=10;" vertex="1" parent="cP0u4AcFSvPjlsEDeug1-185">
          <mxGeometry x="140" y="180" width="40" height="40" as="geometry" />
        </mxCell>
        <mxCell id="cP0u4AcFSvPjlsEDeug1-197" value="Bamlet" style="whiteSpace=wrap;html=1;aspect=fixed;fontSize=10;" vertex="1" parent="cP0u4AcFSvPjlsEDeug1-185">
          <mxGeometry x="200" y="180" width="40" height="40" as="geometry" />
        </mxCell>
        <mxCell id="cP0u4AcFSvPjlsEDeug1-198" value="Bamlet" style="whiteSpace=wrap;html=1;aspect=fixed;fontSize=10;" vertex="1" parent="cP0u4AcFSvPjlsEDeug1-185">
          <mxGeometry x="260" y="180" width="40" height="40" as="geometry" />
        </mxCell>
        <mxCell id="cP0u4AcFSvPjlsEDeug1-199" value="Bamlet" style="whiteSpace=wrap;html=1;aspect=fixed;fontSize=10;" vertex="1" parent="cP0u4AcFSvPjlsEDeug1-185">
          <mxGeometry x="80" y="240" width="40" height="40" as="geometry" />
        </mxCell>
        <mxCell id="cP0u4AcFSvPjlsEDeug1-200" value="Bamlet" style="whiteSpace=wrap;html=1;aspect=fixed;fontSize=10;" vertex="1" parent="cP0u4AcFSvPjlsEDeug1-185">
          <mxGeometry x="140" y="240" width="40" height="40" as="geometry" />
        </mxCell>
        <mxCell id="cP0u4AcFSvPjlsEDeug1-201" value="Bamlet" style="whiteSpace=wrap;html=1;aspect=fixed;fontSize=10;" vertex="1" parent="cP0u4AcFSvPjlsEDeug1-185">
          <mxGeometry x="200" y="240" width="40" height="40" as="geometry" />
        </mxCell>
        <mxCell id="cP0u4AcFSvPjlsEDeug1-202" value="Bamlet" style="whiteSpace=wrap;html=1;aspect=fixed;fontSize=10;" vertex="1" parent="cP0u4AcFSvPjlsEDeug1-185">
          <mxGeometry x="260" y="240" width="40" height="40" as="geometry" />
        </mxCell>
        <mxCell id="cP0u4AcFSvPjlsEDeug1-203" value="" style="endArrow=classic;startArrow=classic;html=1;rounded=0;entryX=0.5;entryY=1;entryDx=0;entryDy=0;exitX=0.5;exitY=0;exitDx=0;exitDy=0;startSize=4;endSize=4;" edge="1" parent="cP0u4AcFSvPjlsEDeug1-185" source="cP0u4AcFSvPjlsEDeug1-202" target="cP0u4AcFSvPjlsEDeug1-198">
          <mxGeometry width="50" height="50" relative="1" as="geometry">
            <mxPoint x="320" y="300" as="sourcePoint" />
            <mxPoint x="370" y="250" as="targetPoint" />
          </mxGeometry>
        </mxCell>
        <mxCell id="cP0u4AcFSvPjlsEDeug1-204" value="" style="endArrow=classic;startArrow=classic;html=1;rounded=0;entryX=0.5;entryY=1;entryDx=0;entryDy=0;exitX=0.5;exitY=0;exitDx=0;exitDy=0;startSize=4;endSize=4;" edge="1" parent="cP0u4AcFSvPjlsEDeug1-185">
          <mxGeometry width="50" height="50" relative="1" as="geometry">
            <mxPoint x="220" y="240" as="sourcePoint" />
            <mxPoint x="220" y="220" as="targetPoint" />
          </mxGeometry>
        </mxCell>
        <mxCell id="cP0u4AcFSvPjlsEDeug1-205" value="" style="endArrow=classic;startArrow=classic;html=1;rounded=0;entryX=0.5;entryY=1;entryDx=0;entryDy=0;exitX=0.5;exitY=0;exitDx=0;exitDy=0;startSize=4;endSize=4;" edge="1" parent="cP0u4AcFSvPjlsEDeug1-185">
          <mxGeometry width="50" height="50" relative="1" as="geometry">
            <mxPoint x="160" y="240" as="sourcePoint" />
            <mxPoint x="160" y="220" as="targetPoint" />
          </mxGeometry>
        </mxCell>
        <mxCell id="cP0u4AcFSvPjlsEDeug1-206" value="" style="endArrow=classic;startArrow=classic;html=1;rounded=0;entryX=0.5;entryY=1;entryDx=0;entryDy=0;exitX=0.5;exitY=0;exitDx=0;exitDy=0;startSize=4;endSize=4;" edge="1" parent="cP0u4AcFSvPjlsEDeug1-185">
          <mxGeometry width="50" height="50" relative="1" as="geometry">
            <mxPoint x="100" y="240" as="sourcePoint" />
            <mxPoint x="100" y="220" as="targetPoint" />
          </mxGeometry>
        </mxCell>
        <mxCell id="cP0u4AcFSvPjlsEDeug1-207" value="" style="endArrow=classic;startArrow=classic;html=1;rounded=0;entryX=0.5;entryY=1;entryDx=0;entryDy=0;exitX=0.5;exitY=0;exitDx=0;exitDy=0;startSize=4;endSize=4;" edge="1" parent="cP0u4AcFSvPjlsEDeug1-185">
          <mxGeometry width="50" height="50" relative="1" as="geometry">
            <mxPoint x="280" y="180" as="sourcePoint" />
            <mxPoint x="280" y="160" as="targetPoint" />
          </mxGeometry>
        </mxCell>
        <mxCell id="cP0u4AcFSvPjlsEDeug1-208" value="" style="endArrow=classic;startArrow=classic;html=1;rounded=0;entryX=0.5;entryY=1;entryDx=0;entryDy=0;exitX=0.5;exitY=0;exitDx=0;exitDy=0;startSize=4;endSize=4;" edge="1" parent="cP0u4AcFSvPjlsEDeug1-185">
          <mxGeometry width="50" height="50" relative="1" as="geometry">
            <mxPoint x="220" y="180" as="sourcePoint" />
            <mxPoint x="220" y="160" as="targetPoint" />
          </mxGeometry>
        </mxCell>
        <mxCell id="cP0u4AcFSvPjlsEDeug1-209" value="" style="endArrow=classic;startArrow=classic;html=1;rounded=0;entryX=0.5;entryY=1;entryDx=0;entryDy=0;exitX=0.5;exitY=0;exitDx=0;exitDy=0;startSize=4;endSize=4;" edge="1" parent="cP0u4AcFSvPjlsEDeug1-185">
          <mxGeometry width="50" height="50" relative="1" as="geometry">
            <mxPoint x="160" y="180" as="sourcePoint" />
            <mxPoint x="160" y="160" as="targetPoint" />
          </mxGeometry>
        </mxCell>
        <mxCell id="cP0u4AcFSvPjlsEDeug1-210" value="" style="endArrow=classic;startArrow=classic;html=1;rounded=0;entryX=0.5;entryY=1;entryDx=0;entryDy=0;exitX=0.5;exitY=0;exitDx=0;exitDy=0;startSize=4;endSize=4;" edge="1" parent="cP0u4AcFSvPjlsEDeug1-185">
          <mxGeometry width="50" height="50" relative="1" as="geometry">
            <mxPoint x="100" y="180" as="sourcePoint" />
            <mxPoint x="100" y="160" as="targetPoint" />
          </mxGeometry>
        </mxCell>
        <mxCell id="cP0u4AcFSvPjlsEDeug1-211" value="" style="endArrow=classic;startArrow=classic;html=1;rounded=0;entryX=0.5;entryY=1;entryDx=0;entryDy=0;exitX=0.5;exitY=0;exitDx=0;exitDy=0;startSize=4;endSize=4;" edge="1" parent="cP0u4AcFSvPjlsEDeug1-185">
          <mxGeometry width="50" height="50" relative="1" as="geometry">
            <mxPoint x="280" y="120" as="sourcePoint" />
            <mxPoint x="280" y="100" as="targetPoint" />
          </mxGeometry>
        </mxCell>
        <mxCell id="cP0u4AcFSvPjlsEDeug1-212" value="" style="endArrow=classic;startArrow=classic;html=1;rounded=0;entryX=0.5;entryY=1;entryDx=0;entryDy=0;exitX=0.5;exitY=0;exitDx=0;exitDy=0;startSize=4;endSize=4;" edge="1" parent="cP0u4AcFSvPjlsEDeug1-185">
          <mxGeometry width="50" height="50" relative="1" as="geometry">
            <mxPoint x="220" y="120" as="sourcePoint" />
            <mxPoint x="220" y="100" as="targetPoint" />
          </mxGeometry>
        </mxCell>
        <mxCell id="cP0u4AcFSvPjlsEDeug1-213" value="" style="endArrow=classic;startArrow=classic;html=1;rounded=0;entryX=0.5;entryY=1;entryDx=0;entryDy=0;exitX=0.5;exitY=0;exitDx=0;exitDy=0;startSize=4;endSize=4;" edge="1" parent="cP0u4AcFSvPjlsEDeug1-185">
          <mxGeometry width="50" height="50" relative="1" as="geometry">
            <mxPoint x="160" y="120" as="sourcePoint" />
            <mxPoint x="160" y="100" as="targetPoint" />
          </mxGeometry>
        </mxCell>
        <mxCell id="cP0u4AcFSvPjlsEDeug1-214" value="" style="endArrow=classic;startArrow=classic;html=1;rounded=0;entryX=0.5;entryY=1;entryDx=0;entryDy=0;exitX=0.5;exitY=0;exitDx=0;exitDy=0;startSize=4;endSize=4;" edge="1" parent="cP0u4AcFSvPjlsEDeug1-185">
          <mxGeometry width="50" height="50" relative="1" as="geometry">
            <mxPoint x="100" y="120" as="sourcePoint" />
            <mxPoint x="100" y="100" as="targetPoint" />
          </mxGeometry>
        </mxCell>
        <mxCell id="cP0u4AcFSvPjlsEDeug1-215" value="" style="endArrow=classic;startArrow=classic;html=1;rounded=0;entryX=0.5;entryY=1;entryDx=0;entryDy=0;exitX=0.5;exitY=0;exitDx=0;exitDy=0;startSize=4;endSize=4;" edge="1" parent="cP0u4AcFSvPjlsEDeug1-185">
          <mxGeometry width="50" height="50" relative="1" as="geometry">
            <mxPoint x="280" y="60" as="sourcePoint" />
            <mxPoint x="280" y="40" as="targetPoint" />
          </mxGeometry>
        </mxCell>
        <mxCell id="cP0u4AcFSvPjlsEDeug1-216" value="" style="endArrow=classic;startArrow=classic;html=1;rounded=0;entryX=0.5;entryY=1;entryDx=0;entryDy=0;exitX=0.5;exitY=0;exitDx=0;exitDy=0;startSize=4;endSize=4;" edge="1" parent="cP0u4AcFSvPjlsEDeug1-185">
          <mxGeometry width="50" height="50" relative="1" as="geometry">
            <mxPoint x="220" y="60" as="sourcePoint" />
            <mxPoint x="220" y="40" as="targetPoint" />
          </mxGeometry>
        </mxCell>
        <mxCell id="cP0u4AcFSvPjlsEDeug1-217" value="" style="endArrow=classic;startArrow=classic;html=1;rounded=0;entryX=0.5;entryY=1;entryDx=0;entryDy=0;exitX=0.5;exitY=0;exitDx=0;exitDy=0;startSize=4;endSize=4;" edge="1" parent="cP0u4AcFSvPjlsEDeug1-185">
          <mxGeometry width="50" height="50" relative="1" as="geometry">
            <mxPoint x="160" y="60" as="sourcePoint" />
            <mxPoint x="160" y="40" as="targetPoint" />
          </mxGeometry>
        </mxCell>
        <mxCell id="cP0u4AcFSvPjlsEDeug1-218" value="" style="endArrow=classic;startArrow=classic;html=1;rounded=0;entryX=0.5;entryY=1;entryDx=0;entryDy=0;exitX=0.5;exitY=0;exitDx=0;exitDy=0;startSize=4;endSize=4;" edge="1" parent="cP0u4AcFSvPjlsEDeug1-185">
          <mxGeometry width="50" height="50" relative="1" as="geometry">
            <mxPoint x="100" y="60" as="sourcePoint" />
            <mxPoint x="100" y="40" as="targetPoint" />
          </mxGeometry>
        </mxCell>
        <mxCell id="cP0u4AcFSvPjlsEDeug1-219" value="" style="endArrow=classic;startArrow=classic;html=1;rounded=0;strokeWidth=4;" edge="1" parent="cP0u4AcFSvPjlsEDeug1-185">
          <mxGeometry width="50" height="50" relative="1" as="geometry">
            <mxPoint x="60" y="300" as="sourcePoint" />
            <mxPoint x="60" y="40" as="targetPoint" />
          </mxGeometry>
        </mxCell>
        <mxCell id="cP0u4AcFSvPjlsEDeug1-220" value="" style="endArrow=classic;startArrow=classic;html=1;rounded=0;entryX=1;entryY=0.5;entryDx=0;entryDy=0;startSize=4;endSize=4;" edge="1" parent="cP0u4AcFSvPjlsEDeug1-185">
          <mxGeometry width="50" height="50" relative="1" as="geometry">
            <mxPoint x="260" y="80" as="sourcePoint" />
            <mxPoint x="240" y="80" as="targetPoint" />
          </mxGeometry>
        </mxCell>
        <mxCell id="cP0u4AcFSvPjlsEDeug1-221" value="" style="endArrow=classic;startArrow=classic;html=1;rounded=0;entryX=1;entryY=0.5;entryDx=0;entryDy=0;startSize=4;endSize=4;" edge="1" parent="cP0u4AcFSvPjlsEDeug1-185">
          <mxGeometry width="50" height="50" relative="1" as="geometry">
            <mxPoint x="260" y="139.82999999999998" as="sourcePoint" />
            <mxPoint x="240" y="139.82999999999998" as="targetPoint" />
          </mxGeometry>
        </mxCell>
        <mxCell id="cP0u4AcFSvPjlsEDeug1-222" value="" style="endArrow=classic;startArrow=classic;html=1;rounded=0;entryX=1;entryY=0.5;entryDx=0;entryDy=0;startSize=4;endSize=4;" edge="1" parent="cP0u4AcFSvPjlsEDeug1-185">
          <mxGeometry width="50" height="50" relative="1" as="geometry">
            <mxPoint x="260" y="200" as="sourcePoint" />
            <mxPoint x="240" y="200" as="targetPoint" />
          </mxGeometry>
        </mxCell>
        <mxCell id="cP0u4AcFSvPjlsEDeug1-223" value="" style="endArrow=classic;startArrow=classic;html=1;rounded=0;entryX=1;entryY=0.5;entryDx=0;entryDy=0;startSize=4;endSize=4;" edge="1" parent="cP0u4AcFSvPjlsEDeug1-185">
          <mxGeometry width="50" height="50" relative="1" as="geometry">
            <mxPoint x="260" y="259.83" as="sourcePoint" />
            <mxPoint x="240" y="259.83" as="targetPoint" />
          </mxGeometry>
        </mxCell>
        <mxCell id="cP0u4AcFSvPjlsEDeug1-224" value="" style="endArrow=classic;startArrow=classic;html=1;rounded=0;entryX=1;entryY=0.5;entryDx=0;entryDy=0;startSize=4;endSize=4;" edge="1" parent="cP0u4AcFSvPjlsEDeug1-185">
          <mxGeometry width="50" height="50" relative="1" as="geometry">
            <mxPoint x="200" y="80" as="sourcePoint" />
            <mxPoint x="180" y="80" as="targetPoint" />
          </mxGeometry>
        </mxCell>
        <mxCell id="cP0u4AcFSvPjlsEDeug1-225" value="" style="endArrow=classic;startArrow=classic;html=1;rounded=0;entryX=1;entryY=0.5;entryDx=0;entryDy=0;startSize=4;endSize=4;" edge="1" parent="cP0u4AcFSvPjlsEDeug1-185">
          <mxGeometry width="50" height="50" relative="1" as="geometry">
            <mxPoint x="200" y="139.82999999999998" as="sourcePoint" />
            <mxPoint x="180" y="139.82999999999998" as="targetPoint" />
          </mxGeometry>
        </mxCell>
        <mxCell id="cP0u4AcFSvPjlsEDeug1-226" value="" style="endArrow=classic;startArrow=classic;html=1;rounded=0;entryX=1;entryY=0.5;entryDx=0;entryDy=0;startSize=4;endSize=4;" edge="1" parent="cP0u4AcFSvPjlsEDeug1-185">
          <mxGeometry width="50" height="50" relative="1" as="geometry">
            <mxPoint x="200" y="200" as="sourcePoint" />
            <mxPoint x="180" y="200" as="targetPoint" />
          </mxGeometry>
        </mxCell>
        <mxCell id="cP0u4AcFSvPjlsEDeug1-227" value="" style="endArrow=classic;startArrow=classic;html=1;rounded=0;entryX=1;entryY=0.5;entryDx=0;entryDy=0;startSize=4;endSize=4;" edge="1" parent="cP0u4AcFSvPjlsEDeug1-185">
          <mxGeometry width="50" height="50" relative="1" as="geometry">
            <mxPoint x="200" y="259.83" as="sourcePoint" />
            <mxPoint x="180" y="259.83" as="targetPoint" />
          </mxGeometry>
        </mxCell>
        <mxCell id="cP0u4AcFSvPjlsEDeug1-228" value="" style="endArrow=classic;startArrow=classic;html=1;rounded=0;entryX=1;entryY=0.5;entryDx=0;entryDy=0;startSize=4;endSize=4;" edge="1" parent="cP0u4AcFSvPjlsEDeug1-185">
          <mxGeometry width="50" height="50" relative="1" as="geometry">
            <mxPoint x="140" y="80" as="sourcePoint" />
            <mxPoint x="120" y="80" as="targetPoint" />
          </mxGeometry>
        </mxCell>
        <mxCell id="cP0u4AcFSvPjlsEDeug1-229" value="" style="endArrow=classic;startArrow=classic;html=1;rounded=0;entryX=1;entryY=0.5;entryDx=0;entryDy=0;startSize=4;endSize=4;" edge="1" parent="cP0u4AcFSvPjlsEDeug1-185">
          <mxGeometry width="50" height="50" relative="1" as="geometry">
            <mxPoint x="140" y="139.82999999999998" as="sourcePoint" />
            <mxPoint x="120" y="139.82999999999998" as="targetPoint" />
          </mxGeometry>
        </mxCell>
        <mxCell id="cP0u4AcFSvPjlsEDeug1-230" value="" style="endArrow=classic;startArrow=classic;html=1;rounded=0;entryX=1;entryY=0.5;entryDx=0;entryDy=0;startSize=4;endSize=4;" edge="1" parent="cP0u4AcFSvPjlsEDeug1-185">
          <mxGeometry width="50" height="50" relative="1" as="geometry">
            <mxPoint x="140" y="200" as="sourcePoint" />
            <mxPoint x="120" y="200" as="targetPoint" />
          </mxGeometry>
        </mxCell>
        <mxCell id="cP0u4AcFSvPjlsEDeug1-231" value="" style="endArrow=classic;startArrow=classic;html=1;rounded=0;entryX=1;entryY=0.5;entryDx=0;entryDy=0;startSize=4;endSize=4;" edge="1" parent="cP0u4AcFSvPjlsEDeug1-185">
          <mxGeometry width="50" height="50" relative="1" as="geometry">
            <mxPoint x="140" y="259.83" as="sourcePoint" />
            <mxPoint x="120" y="259.83" as="targetPoint" />
          </mxGeometry>
        </mxCell>
        <mxCell id="cP0u4AcFSvPjlsEDeug1-232" value="" style="endArrow=classic;startArrow=classic;html=1;rounded=0;startSize=4;endSize=4;" edge="1" parent="cP0u4AcFSvPjlsEDeug1-185">
          <mxGeometry width="50" height="50" relative="1" as="geometry">
            <mxPoint x="80" y="80" as="sourcePoint" />
            <mxPoint x="10" y="80" as="targetPoint" />
          </mxGeometry>
        </mxCell>
        <mxCell id="cP0u4AcFSvPjlsEDeug1-233" value="" style="endArrow=classic;startArrow=classic;html=1;rounded=0;startSize=4;endSize=4;" edge="1" parent="cP0u4AcFSvPjlsEDeug1-185">
          <mxGeometry width="50" height="50" relative="1" as="geometry">
            <mxPoint x="80" y="139.82999999999998" as="sourcePoint" />
            <mxPoint x="10" y="140" as="targetPoint" />
          </mxGeometry>
        </mxCell>
        <mxCell id="cP0u4AcFSvPjlsEDeug1-234" value="" style="endArrow=classic;startArrow=classic;html=1;rounded=0;startSize=4;endSize=4;" edge="1" parent="cP0u4AcFSvPjlsEDeug1-185">
          <mxGeometry width="50" height="50" relative="1" as="geometry">
            <mxPoint x="80" y="200" as="sourcePoint" />
            <mxPoint x="10" y="200" as="targetPoint" />
          </mxGeometry>
        </mxCell>
        <mxCell id="cP0u4AcFSvPjlsEDeug1-235" value="" style="endArrow=classic;startArrow=classic;html=1;rounded=0;startSize=4;endSize=4;" edge="1" parent="cP0u4AcFSvPjlsEDeug1-185">
          <mxGeometry width="50" height="50" relative="1" as="geometry">
            <mxPoint x="80" y="259.83" as="sourcePoint" />
            <mxPoint x="10" y="260" as="targetPoint" />
          </mxGeometry>
        </mxCell>
        <mxCell id="cP0u4AcFSvPjlsEDeug1-236" value="" style="endArrow=classic;startArrow=classic;html=1;rounded=0;entryX=0.5;entryY=1;entryDx=0;entryDy=0;exitX=0.5;exitY=0;exitDx=0;exitDy=0;startSize=4;endSize=4;" edge="1" parent="cP0u4AcFSvPjlsEDeug1-185">
          <mxGeometry width="50" height="50" relative="1" as="geometry">
            <mxPoint x="280" y="300" as="sourcePoint" />
            <mxPoint x="280" y="280" as="targetPoint" />
          </mxGeometry>
        </mxCell>
        <mxCell id="cP0u4AcFSvPjlsEDeug1-237" value="" style="endArrow=classic;startArrow=classic;html=1;rounded=0;entryX=0.5;entryY=1;entryDx=0;entryDy=0;exitX=0.5;exitY=0;exitDx=0;exitDy=0;startSize=4;endSize=4;" edge="1" parent="cP0u4AcFSvPjlsEDeug1-185">
          <mxGeometry width="50" height="50" relative="1" as="geometry">
            <mxPoint x="220" y="300" as="sourcePoint" />
            <mxPoint x="220" y="280" as="targetPoint" />
          </mxGeometry>
        </mxCell>
        <mxCell id="cP0u4AcFSvPjlsEDeug1-238" value="" style="endArrow=classic;startArrow=classic;html=1;rounded=0;entryX=0.5;entryY=1;entryDx=0;entryDy=0;exitX=0.5;exitY=0;exitDx=0;exitDy=0;startSize=4;endSize=4;" edge="1" parent="cP0u4AcFSvPjlsEDeug1-185">
          <mxGeometry width="50" height="50" relative="1" as="geometry">
            <mxPoint x="160" y="300" as="sourcePoint" />
            <mxPoint x="160" y="280" as="targetPoint" />
          </mxGeometry>
        </mxCell>
        <mxCell id="cP0u4AcFSvPjlsEDeug1-239" value="" style="endArrow=classic;startArrow=classic;html=1;rounded=0;entryX=0.5;entryY=1;entryDx=0;entryDy=0;exitX=0.5;exitY=0;exitDx=0;exitDy=0;startSize=4;endSize=4;" edge="1" parent="cP0u4AcFSvPjlsEDeug1-185">
          <mxGeometry width="50" height="50" relative="1" as="geometry">
            <mxPoint x="100" y="300" as="sourcePoint" />
            <mxPoint x="100" y="280" as="targetPoint" />
          </mxGeometry>
        </mxCell>
        <mxCell id="cP0u4AcFSvPjlsEDeug1-240" value="" style="endArrow=classic;startArrow=classic;html=1;rounded=0;strokeWidth=4;exitX=0;exitY=0.5;exitDx=0;exitDy=0;" edge="1" parent="cP0u4AcFSvPjlsEDeug1-185" source="cP0u4AcFSvPjlsEDeug1-187">
          <mxGeometry width="50" height="50" relative="1" as="geometry">
            <mxPoint x="330" y="20" as="sourcePoint" />
            <mxPoint y="20" as="targetPoint" />
            <Array as="points" />
          </mxGeometry>
        </mxCell>
      </root>
    </mxGraphModel>
  </diagram>
</mxfile>
